<svg width="1000" height="160" viewBox="0 0 1000 160" fill="none" xmlns="http://www.w3.org/2000/svg">
<g clip-path="url(#clip0_1915_7386)">
<path d="M78.7359 24.2663C79.348 23.6011 80.0958 23.0721 80.93 22.7142C81.7641 22.3564 82.6654 22.178 83.5745 22.1907C85.3388 22.1907 86.7164 22.7313 87.5857 23.7691V22.9088C87.5914 22.7899 87.6414 22.6774 87.7261 22.5928C87.8108 22.5083 87.9241 22.4578 88.0442 22.4511H90.3728C90.4916 22.4596 90.6033 22.5109 90.6866 22.5952C90.77 22.6795 90.8193 22.791 90.8253 22.9088V35.7038C90.8965 37.5092 90.3329 39.2831 89.2304 40.7231C87.9744 42.2345 86.0685 43 83.5645 43C80.0836 43 77.3364 40.8198 76.8838 37.7064C76.8724 37.594 76.9013 37.4813 76.9655 37.3879C77.0296 37.2944 77.1249 37.2263 77.2347 37.1954L79.5094 36.6666C79.5214 36.6657 79.5334 36.6657 79.5453 36.6666C79.6046 36.6577 79.6652 36.6605 79.7234 36.6748C79.7817 36.6891 79.8365 36.7148 79.8847 36.7502C79.9328 36.7856 79.9735 36.8301 80.0042 36.8811C80.0349 36.9321 80.0551 36.9886 80.0637 37.0474C80.1653 37.8908 80.5817 38.6662 81.2312 39.2214C81.8808 39.7766 82.7165 40.0716 83.5745 40.0484C86.2938 40.0484 87.5617 38.6673 87.5617 35.7808V34.6601C87.0627 35.2135 86.4469 35.6516 85.7579 35.9434C85.0689 36.2353 84.3235 36.3737 83.5745 36.349C79.7048 36.349 76.8978 33.3757 76.8978 29.2836C76.8634 27.4439 77.5181 25.6567 78.7359 24.2663ZM123.89 22.0151H124.011C128.172 22.0703 130.75 24.9371 130.75 29.5243C130.75 29.7676 130.736 30.0106 130.71 30.2524C130.697 30.3607 130.644 30.4606 130.562 30.5332C130.48 30.6059 130.374 30.6463 130.263 30.647H120.377C120.407 31.6351 120.828 32.5719 121.55 33.2552C122.272 33.9385 123.236 34.3135 124.235 34.299C125.017 34.3474 125.793 34.132 126.435 33.6881C127.078 33.2441 127.55 32.5978 127.773 31.8545C127.814 31.7455 127.897 31.6564 128.002 31.606C128.108 31.5556 128.23 31.5478 128.342 31.5842L130.315 32.2727C130.373 32.2908 130.425 32.3207 130.47 32.3605C130.515 32.4003 130.55 32.4491 130.574 32.5036C130.601 32.5561 130.617 32.6133 130.621 32.6719C130.625 32.7305 130.617 32.7893 130.598 32.8449C130.152 34.1535 129.293 35.2856 128.147 36.0742C127.001 36.8628 125.63 37.2663 124.235 37.225C123.305 37.2338 122.382 37.0601 121.521 36.714C120.659 36.3679 119.875 35.8562 119.215 35.2086C118.495 34.4584 117.934 33.5735 117.564 32.6059C117.194 31.6383 117.024 30.6075 117.062 29.5737C117.062 24.8384 120.538 22.0032 123.898 22.0032L123.89 22.0151ZM67.9324 22.0151C72.1669 22.0151 74.7985 24.8937 74.7985 29.5263C74.7981 29.7695 74.7848 30.0125 74.7586 30.2544C74.7463 30.363 74.694 30.4634 74.6116 30.5362C74.5292 30.609 74.4225 30.6492 74.312 30.649H64.4216C64.4513 31.6391 64.8742 32.5778 65.5986 33.2614C66.323 33.945 67.2904 34.3186 68.2912 34.301C69.0738 34.3502 69.8502 34.1352 70.4933 33.6911C71.1364 33.2471 71.6084 32.6003 71.8319 31.8564C71.8721 31.7468 71.9541 31.6571 72.0603 31.6066C72.1665 31.556 72.2885 31.5487 72.4001 31.5861L74.3758 32.2747C74.4325 32.2934 74.4847 32.3236 74.529 32.3634C74.5732 32.4031 74.6087 32.4515 74.633 32.5056C74.6556 32.5597 74.6673 32.6177 74.6673 32.6762C74.6673 32.7348 74.6556 32.7928 74.633 32.8469C74.1866 34.1547 73.3277 35.2861 72.1828 36.0746C71.038 36.8631 69.6675 37.2671 68.2733 37.227C67.3421 37.2369 66.4181 37.0638 65.555 36.7177C64.6919 36.3715 63.9069 35.8593 63.2453 35.2106C62.5268 34.4611 61.9662 33.5775 61.5962 32.6114C61.2262 31.6454 61.0542 30.6161 61.0902 29.5835C61.0902 24.8483 64.5671 22.0131 67.9284 22.0131L67.9324 22.0151ZM52.9502 22.0151C54.8521 22.0151 56.3892 22.4708 57.5356 23.3725C58.3026 23.978 58.872 24.7941 59.1723 25.7184C59.1821 25.7577 59.1839 25.7985 59.1777 25.8384C59.1714 25.8784 59.1572 25.9167 59.1359 25.9512C59.1146 25.9857 59.0866 26.0157 59.0535 26.0394C59.0204 26.0631 58.9828 26.0801 58.9431 26.0893L56.5806 26.8647C56.476 26.9042 56.3603 26.9042 56.2556 26.8647C56.2111 26.8444 56.1716 26.8148 56.1396 26.7781C56.1076 26.7413 56.084 26.6982 56.0702 26.6516C55.8709 25.896 55.1851 24.6273 52.9522 24.6273C51.3972 24.6273 50.4641 25.5112 50.4641 26.3675C50.4641 26.9358 50.7592 27.6677 52.1647 27.9321L54.7564 28.4135C57.6532 28.9916 59.3119 30.5602 59.3119 32.7443V32.7068C59.3119 34.8771 57.2026 37.1954 53.2831 37.1954C48.7297 37.1954 46.9454 34.6423 46.6124 33.1488C46.6015 33.0703 46.6201 32.9907 46.6645 32.9249C46.709 32.8591 46.7763 32.8117 46.8537 32.7917L49.2859 32.0419C49.3294 32.034 49.374 32.034 49.4175 32.0419C49.4869 32.0407 49.5555 32.057 49.6168 32.0893C49.6607 32.1106 49.6995 32.141 49.7304 32.1785C49.7614 32.2159 49.7838 32.2595 49.7963 32.3063C50.1033 33.7505 51.4211 34.6108 53.317 34.6108C55.0814 34.6108 55.8848 33.6973 55.8848 32.8686C55.8848 32.0399 55.1691 31.4303 53.939 31.1856L51.2157 30.6608C48.6718 30.1853 47.0869 28.6207 47.0869 26.5846C47.0869 24.1065 49.7763 22.0151 52.9502 22.0151ZM153.142 18C153.266 18.008 153.382 18.0622 153.467 18.1516C153.551 18.2409 153.599 18.3588 153.599 18.4814V22.4274H156.155C156.278 22.4359 156.393 22.4903 156.478 22.5796C156.562 22.669 156.609 22.7866 156.609 22.9088V25.0121C156.61 25.1321 156.562 25.2474 156.477 25.3328C156.392 25.4183 156.276 25.4668 156.155 25.4678H153.599V32.4898C153.599 33.6539 154.065 34.1353 155.266 34.1353C155.539 34.1307 155.812 34.1083 156.083 34.0682C156.149 34.0571 156.216 34.0604 156.28 34.0778C156.344 34.0952 156.403 34.1262 156.454 34.1688C156.55 34.2596 156.606 34.3845 156.609 34.5161V36.4891C156.61 36.5873 156.579 36.683 156.52 36.762C156.461 36.841 156.377 36.8989 156.282 36.9271C155.699 37.089 155.094 37.1668 154.488 37.1579C151.924 37.1579 150.335 35.5262 150.335 32.8942V25.4974H148.122C148.003 25.4903 147.89 25.4396 147.806 25.3551C147.721 25.2706 147.672 25.1583 147.666 25.0397V22.9325C147.665 22.8097 147.712 22.6912 147.797 22.6017C147.882 22.5121 147.999 22.4582 148.122 22.4511H148.687C149.382 22.4511 150.555 22.2104 150.555 20.5689V18.4814C150.554 18.3586 150.601 18.2401 150.686 18.1505C150.771 18.061 150.887 18.0071 151.011 18H153.142ZM105.134 24.3669C105.634 23.6103 106.325 22.9956 107.139 22.5832C107.952 22.1709 108.86 21.9751 109.773 22.0151C112.301 22.0151 114.855 23.777 114.855 27.6263V36.5364C114.848 36.6552 114.798 36.7675 114.714 36.852C114.629 36.9364 114.516 36.987 114.396 36.9942H112.064C111.944 36.987 111.831 36.9364 111.746 36.852C111.661 36.7675 111.611 36.6552 111.605 36.5364V27.9124C111.605 26.8213 111.26 24.9746 108.928 24.9746C107.221 24.9746 106.009 26.3024 106.009 28.2281V36.5364C106.003 36.655 105.953 36.7673 105.869 36.8518C105.785 36.9363 105.672 36.987 105.552 36.9942H103.194C103.074 36.9866 102.962 36.9357 102.877 36.8513C102.793 36.7669 102.743 36.6549 102.737 36.5364V27.9124C102.737 26.8213 102.392 24.9825 100.058 24.9825C98.2835 24.9825 97.0873 26.3004 97.0873 28.2636V36.5364C97.0812 36.6549 97.0313 36.7669 96.9471 36.8513C96.863 36.9357 96.7504 36.9866 96.6308 36.9942H94.3002C94.1814 36.986 94.0698 36.9348 93.9867 36.8504C93.9035 36.766 93.8548 36.6542 93.8497 36.5364V22.8793C93.8552 22.7616 93.9041 22.6501 93.9871 22.5657C94.0702 22.4814 94.1816 22.4301 94.3002 22.4215H96.5431C96.6627 22.4291 96.7752 22.4799 96.8594 22.5643C96.9436 22.6487 96.9935 22.7608 96.9996 22.8793V23.702C97.4985 23.1618 98.1073 22.7323 98.7859 22.4415C99.4645 22.1508 100.198 22.0055 100.937 22.0151C101.787 21.99 102.628 22.196 103.367 22.6106C104.107 23.0253 104.718 23.6327 105.134 24.3669ZM140.644 22.0151C141.39 21.9835 142.132 22.1201 142.817 22.4144C143.501 22.7086 144.109 23.153 144.594 23.7138C145.498 24.8925 145.959 26.3468 145.896 27.8256V36.5364C145.89 36.6541 145.841 36.7656 145.758 36.8499C145.675 36.9343 145.564 36.9856 145.445 36.9942H143.087C142.967 36.9866 142.854 36.9359 142.769 36.8515C142.685 36.7671 142.635 36.655 142.628 36.5364V28.2932C142.628 26.1367 141.603 25.0397 139.657 25.0397C139.234 25.0262 138.813 25.1115 138.428 25.2887C138.044 25.4658 137.707 25.73 137.445 26.0597C136.919 26.8112 136.653 27.7111 136.687 28.6247V36.5364C136.681 36.6549 136.631 36.7669 136.547 36.8513C136.463 36.9357 136.35 36.9866 136.23 36.9942H133.876C133.756 36.9866 133.644 36.9357 133.56 36.8513C133.475 36.7669 133.425 36.6549 133.419 36.5364V22.8694C133.424 22.7503 133.474 22.6373 133.558 22.5523C133.642 22.4673 133.756 22.4164 133.876 22.4097H136.177C136.295 22.4177 136.407 22.4686 136.49 22.5525C136.574 22.6365 136.623 22.7478 136.629 22.8654V23.8283C137.117 23.2459 137.731 22.7802 138.427 22.4662C139.122 22.1522 139.88 21.998 140.644 22.0151ZM83.9772 25.0693C81.6825 25.0693 80.2251 26.6852 80.2251 29.2836C80.2251 31.8821 81.6646 33.496 83.9772 33.496C86.1861 33.496 87.6734 31.8012 87.6734 29.2836C87.6734 26.7661 86.1861 25.0693 83.9772 25.0693ZM67.9563 24.9391C67.1096 24.9256 66.2882 25.225 65.6526 25.7789C65.017 26.3327 64.6129 27.1012 64.5193 27.9341H71.4372C71.2677 26.0854 69.938 24.9391 67.9563 24.9391ZM123.928 24.9391C123.081 24.9256 122.26 25.225 121.624 25.7789C120.988 26.3327 120.584 27.1012 120.491 27.9341H127.411C127.239 26.0854 125.911 24.9391 123.928 24.9391Z" fill="#666D80"/>
<path d="M50.5429 13.2447V17.915H49.2198V13.2447H47.3906V12.1123H52.3821V13.2447H50.5429Z" fill="#666D80"/>
<path d="M60.6529 17.9351H59.2776L58.0247 13.6583L56.7417 17.9351H55.3864L53.6797 12.1123H55.0852L56.1674 16.3067L57.3882 12.1123H58.7937L59.9984 16.3067L61.0465 12.1123H62.3395L60.6529 17.9351Z" fill="#666D80"/>
<path d="M64.1562 17.915V12.1123H65.4593V17.915H64.1562Z" fill="#666D80"/>
<path d="M67.8047 17.915V12.1123H69.1279V16.7725H71.3927V17.915H67.8047Z" fill="#666D80"/>
<path d="M73.3672 17.915V12.1123H74.6703V17.915H73.3672Z" fill="#666D80"/>
<path d="M79.5846 18.0252C77.9884 18.0252 76.6953 16.8727 76.6953 15.0235C76.6953 13.1743 77.9984 12.0117 79.5967 12.0117C81.1949 12.0117 82.4859 13.1642 82.4859 15.0235C82.4859 16.8828 81.1929 18.0252 79.5846 18.0252ZM79.5967 13.0739C78.5927 13.0739 78.0084 13.9011 78.0084 15.0135C78.0084 16.1258 78.6108 16.9631 79.5967 16.9631C80.5825 16.9631 81.1628 16.1158 81.1628 15.0235C81.1628 13.9312 80.5664 13.0739 79.5967 13.0739Z" fill="#666D80"/>
</g>
<path d="M283.606 33.2388C281.019 33.2388 278.922 31.0916 278.922 28.4425C278.922 25.794 281.019 23.6469 283.606 23.6469C286.192 23.6469 288.289 25.794 288.289 28.4425C288.289 31.0916 286.192 33.2388 283.606 33.2388ZM288.304 33.847C288.369 34.5829 288.957 35.5199 289.975 35.5199H290.571C290.802 35.5199 290.992 35.3302 290.992 35.0988V21.9742H290.989C290.977 21.7531 290.795 21.5759 290.571 21.5759H288.724C288.501 21.5759 288.319 21.7531 288.306 21.9742H288.304V23.0406C287.172 21.6442 285.388 21.0645 283.599 21.0645C279.532 21.0645 276.234 24.3677 276.234 28.4425C276.234 32.5177 279.532 35.8209 283.599 35.8209C285.388 35.8209 287.338 35.1257 288.304 33.8452L288.304 33.847ZM313.859 33.2388C311.272 33.2388 309.175 31.0916 309.175 28.4425C309.175 25.794 311.272 23.6469 313.859 23.6469C316.446 23.6469 318.542 25.794 318.542 28.4425C318.542 31.0916 316.446 33.2388 313.859 33.2388ZM318.557 33.847C318.622 34.5829 319.21 35.5199 320.228 35.5199H320.825C321.056 35.5199 321.245 35.3302 321.245 35.0988V21.9742H321.243C321.231 21.7531 321.048 21.5759 320.825 21.5759H318.978C318.754 21.5759 318.572 21.7531 318.559 21.9742H318.557V23.0406C317.425 21.6442 315.641 21.0645 313.852 21.0645C309.784 21.0645 306.487 24.3677 306.487 28.4425C306.487 32.5177 309.784 35.8209 313.852 35.8209C315.641 35.8209 317.591 35.1257 318.557 33.8452L318.557 33.847Z" fill="#666D80"/>
<path d="M347.075 33.1164C344.535 33.1164 342.475 31.0116 342.475 28.4148C342.475 25.8187 344.535 23.714 347.075 23.714C349.616 23.714 351.675 25.8187 351.675 28.4148C351.675 31.0116 349.616 33.1164 347.075 33.1164ZM351.689 33.7126C351.753 34.4339 352.33 35.3524 353.331 35.3524H353.916C354.143 35.3524 354.329 35.1665 354.329 34.9396V22.0744H354.327C354.315 21.8577 354.136 21.6839 353.916 21.6839H352.102C351.883 21.6839 351.704 21.8577 351.692 22.0744H351.689V23.1197C350.578 21.7509 348.826 21.1826 347.068 21.1826C343.074 21.1826 339.836 24.4206 339.836 28.4148C339.836 32.4096 343.074 35.6475 347.068 35.6475C348.826 35.6475 350.741 34.966 351.689 33.7108L351.689 33.7126Z" fill="#666D80"/>
<path d="M337.476 33.8671L337.475 27.2813C337.475 23.5689 335.115 21.0645 331.351 21.0645C329.554 21.0645 327.91 22.0866 327.561 22.981C327.449 22.2886 327.078 21.5606 325.929 21.5606H325.344C325.117 21.5606 324.932 21.7447 324.932 21.9691V33.4614V33.4631V34.675V34.6974H324.934C324.946 34.9114 325.125 35.0836 325.344 35.0836H326.569H327.152C327.18 35.0836 327.207 35.0803 327.233 35.0751C327.245 35.0729 327.257 35.0683 327.268 35.065C327.282 35.0609 327.296 35.0576 327.308 35.0524C327.324 35.0459 327.339 35.0369 327.354 35.0286C327.361 35.0243 327.369 35.021 327.376 35.0164C327.394 35.0049 327.411 34.9909 327.427 34.9768C327.429 34.9742 327.433 34.9724 327.435 34.97C327.453 34.9528 327.47 34.9339 327.484 34.914C327.529 34.8524 327.557 34.7776 327.562 34.6974H327.564V34.675V33.8673V33.6551V27.1791C327.564 25.1854 329.193 23.5689 331.202 23.5689C333.212 23.5689 334.841 25.1854 334.841 27.1791L334.843 33.4633L334.843 33.4614C334.843 33.4668 334.844 33.4725 334.844 33.4786V34.675V34.6974H334.846C334.858 34.9114 335.037 35.0836 335.256 35.0836H336.48H337.064C337.092 35.0836 337.119 35.0803 337.145 35.0751C337.156 35.0731 337.166 35.069 337.176 35.0659C337.191 35.0618 337.206 35.0581 337.221 35.0524C337.235 35.0463 337.249 35.038 337.263 35.03C337.271 35.0254 337.28 35.0219 337.288 35.0164C337.305 35.0055 337.321 34.9925 337.335 34.9792C337.339 34.9759 337.344 34.9733 337.347 34.9696C337.364 34.9533 337.38 34.9356 337.394 34.9169C337.395 34.9156 337.396 34.9145 337.397 34.9132C337.442 34.8519 337.469 34.7783 337.473 34.6985C337.473 34.6979 337.474 34.6974 337.474 34.6974H337.476V34.675L337.476 33.8671ZM294.915 31.9671C296.177 32.8232 297.555 33.2386 298.879 33.2386C300.14 33.2386 301.444 32.5987 301.444 31.4847C301.444 29.9975 298.603 29.7661 296.818 29.1723C295.032 28.5784 293.494 27.351 293.494 25.3627C293.494 22.3209 296.263 21.0645 298.848 21.0645C300.486 21.0645 302.176 21.5931 303.271 22.3501C303.649 22.6298 303.419 22.9514 303.419 22.9514L302.373 24.413C302.256 24.5776 302.05 24.7201 301.755 24.5417C301.46 24.3635 300.425 23.6468 298.848 23.6468C297.271 23.6468 296.321 24.3597 296.321 25.2432C296.321 26.3026 297.556 26.6358 299.002 26.9968C301.522 27.6617 304.271 28.4609 304.271 31.4847C304.271 34.165 301.71 35.8214 298.879 35.8214C296.734 35.8214 294.907 35.2228 293.375 34.1225C293.056 33.81 293.279 33.5197 293.279 33.5197L294.319 32.0653C294.531 31.7934 294.798 31.8883 294.915 31.9671Z" fill="#666D80"/>
<path d="M265.166 22.5396C265.166 25.3922 262.853 27.7049 260.001 27.7049C257.148 27.7049 254.836 25.3922 254.836 22.5396C254.836 19.6877 257.148 17.375 260.001 17.375C262.853 17.375 265.166 19.6877 265.166 22.5396Z" fill="#666D80"/>
<path d="M253.34 28.4834C250.499 28.4834 248.195 30.7863 248.195 33.6277C248.195 36.4691 250.499 38.7726 253.34 38.7726C256.181 38.7726 258.485 36.4691 258.485 33.6277C258.485 30.7863 256.181 28.4834 253.34 28.4834Z" fill="#666D80"/>
<path d="M266.564 28.4834C263.785 28.4834 261.531 30.7867 261.531 33.6284C261.531 36.4695 263.785 38.7731 266.564 38.7731C269.344 38.7731 271.597 36.4695 271.597 33.6284C271.597 30.7867 269.344 28.4834 266.564 28.4834Z" fill="#666D80"/>
<path d="M462.382 12.25H438.336C436.123 12.25 434.328 14.0444 434.328 16.2576V40.3034C434.328 42.5166 436.123 44.3111 438.336 44.3111H462.382C464.595 44.3111 466.389 42.5166 466.389 40.3034V16.2576C466.389 14.0444 464.595 12.25 462.382 12.25ZM454.633 18.1282C454.633 17.5381 455.112 17.0592 455.702 17.0592C456.292 17.0592 456.771 17.5381 456.771 18.1282V32.4064C456.771 32.9965 456.292 33.4754 455.702 33.4754C455.112 33.4754 454.633 32.9965 454.633 32.4064V18.1282ZM449.29 17.5872C449.29 16.997 449.769 16.5181 450.359 16.5181C450.949 16.5181 451.428 16.997 451.428 17.5872V33.0837C451.428 33.6738 450.949 34.1527 450.359 34.1527C449.769 34.1527 449.29 33.6738 449.29 33.0837V17.5872ZM443.946 18.1282C443.946 17.5381 444.425 17.0592 445.015 17.0592C445.606 17.0592 446.084 17.5381 446.084 18.1282V32.4064C446.084 32.9965 445.606 33.4754 445.015 33.4754C444.425 33.4754 443.946 32.9965 443.946 32.4064V18.1282ZM438.603 20.2653C438.603 19.6751 439.081 19.1962 439.671 19.1962C440.261 19.1962 440.74 19.6751 440.74 20.2653V29.8776C440.74 30.4677 440.261 30.9466 439.671 30.9466C439.081 30.9466 438.603 30.4677 438.603 29.8776V20.2653ZM461.741 36.5663C461.577 36.7086 457.617 40.0299 450.359 40.0299C443.1 40.0299 439.142 36.7086 438.976 36.5663C438.528 36.1826 438.475 35.5083 438.86 35.0594C439.242 34.6126 439.916 34.5595 440.364 34.9422C440.426 34.9943 443.961 37.8928 450.358 37.8928C456.834 37.8928 460.315 34.9733 460.349 34.9442C460.796 34.5595 461.472 34.6116 461.855 35.0594C462.241 35.5083 462.189 36.1826 461.741 36.5663ZM462.114 29.8776C462.114 30.4677 461.635 30.9466 461.045 30.9466C460.455 30.9466 459.977 30.4677 459.977 29.8776V20.2653C459.977 19.6751 460.455 19.1962 461.045 19.1962C461.635 19.1962 462.114 19.6751 462.114 20.2653V29.8776Z" fill="#666D80"/>
<path d="M479.106 32.9151C479.106 33.4501 478.698 33.8899 478.115 33.8899C477.549 33.8899 477.141 33.4491 477.141 32.9151V23.6204C477.141 23.0853 477.549 22.6455 478.132 22.6455C478.698 22.6455 479.106 23.0863 479.106 23.6204V32.9151Z" fill="#666D80"/>
<path d="M491.815 23.6202V32.1134C491.815 33.2616 491.202 33.9068 490.227 33.9068H490.149C489.222 33.9068 488.781 33.3718 488.388 32.5853L486.406 28.7319L484.645 24.7534L484.692 28.6067L484.708 32.8999C484.708 33.4349 484.299 33.8747 483.717 33.8747C483.151 33.8747 482.742 33.4339 482.742 32.8999V24.4067C482.742 23.3527 483.355 22.6133 484.425 22.6133H484.504C485.494 22.6133 485.903 23.1483 486.297 23.9348L488.247 27.7571L489.914 31.4691L489.867 27.9144L489.851 23.6212C489.851 23.0862 490.26 22.6463 490.842 22.6463C491.407 22.6453 491.815 23.0852 491.815 23.6202Z" fill="#666D80"/>
<path d="M499.69 32.9C499.69 33.435 499.281 33.8749 498.699 33.8749C498.133 33.8749 497.724 33.434 497.724 32.9V24.486H495.287C494.784 24.486 494.375 24.1083 494.375 23.5582C494.375 23.0232 494.784 22.6465 495.287 22.6465H502.128C502.631 22.6465 503.04 23.0242 503.04 23.5743C503.04 24.1093 502.631 24.486 502.128 24.486H499.69V32.9Z" fill="#666D80"/>
<path d="M505.603 32.5858V23.8571C505.603 23.0396 506.059 22.5837 506.893 22.6148H512.554C513.057 22.6148 513.466 23.0075 513.466 23.5425C513.466 24.0776 513.057 24.4543 512.554 24.4543H507.553V27.1594H511.972C512.46 27.1594 512.853 27.5211 512.853 28.0401C512.853 28.5591 512.46 28.9208 511.972 28.9208H507.553V32.0347H512.554C513.057 32.0347 513.466 32.4275 513.466 32.9625C513.466 33.4975 513.057 33.8742 512.554 33.8742H506.845C506.028 33.8752 505.572 33.4194 505.603 32.5858Z" fill="#666D80"/>
<path d="M524.637 32.6008C524.905 33.0567 524.731 33.6388 524.181 33.9223C523.646 34.1898 523.064 33.9854 522.798 33.5296L520.612 29.4879H518.536L518.552 32.9164C518.552 33.4514 518.143 33.8913 517.561 33.8913C516.995 33.8913 516.586 33.4504 516.586 32.9164V23.8571C516.586 23.0396 517.042 22.5837 517.875 22.6148H521.602C524.166 22.6148 525.235 24.2819 525.235 25.9802C525.235 27.6003 524.292 28.7955 522.672 29.1101L524.637 32.6008ZM518.535 27.7095H521.649C522.703 27.7095 523.253 27.0332 523.253 26.0734C523.253 25.1135 522.671 24.4533 521.633 24.4533H518.535V27.7095Z" fill="#666D80"/>
<path d="M529.292 33.0416C528.113 31.9876 527.578 30.3364 527.578 28.2605C527.578 26.1685 528.097 24.5334 529.261 23.4954C529.985 22.8662 530.96 22.4414 532.375 22.4414C533.618 22.4414 534.577 22.7249 535.301 23.3381C535.93 23.8411 536.386 24.5494 536.653 25.5403C536.795 26.0593 536.433 26.5783 535.836 26.6885C535.27 26.7827 534.814 26.421 534.641 25.902C534.452 25.399 534.2 25.0374 533.901 24.7849C533.492 24.4232 532.989 24.2659 532.328 24.2659C531.621 24.2659 531.007 24.4703 530.551 24.9261C529.891 25.5864 529.607 26.7666 529.607 28.2605C529.607 29.7393 529.874 30.9186 530.567 31.5788C531.023 32.0347 531.621 32.2391 532.312 32.2391C533.036 32.2391 533.586 32.0507 534.042 31.6259C534.278 31.4055 534.483 31.1229 534.625 30.7923C534.829 30.3044 535.254 29.9427 535.804 30.0689C536.354 30.1952 536.701 30.7292 536.527 31.2482C536.244 32.1128 535.757 32.8051 535.096 33.277C534.373 33.796 533.476 34.0635 532.344 34.0635C530.897 34.0635 529.985 33.6387 529.292 33.0416Z" fill="#666D80"/>
<path d="M538.867 28.2605C538.867 24.7378 540.314 22.4414 543.727 22.4414C547.109 22.4414 548.572 24.6747 548.572 28.2605C548.572 31.8934 547.093 34.0796 543.727 34.0796C540.299 34.0796 538.867 31.8934 538.867 28.2605ZM546.558 28.2605C546.558 25.5864 545.583 24.2819 543.711 24.2819C541.871 24.2819 540.896 25.5874 540.896 28.2605C540.896 30.9346 541.84 32.2391 543.711 32.2391C545.567 32.2391 546.558 30.9336 546.558 28.2605Z" fill="#666D80"/>
<path d="M563.828 32.9C563.828 33.435 563.42 33.8749 562.837 33.8749C562.271 33.8749 561.863 33.434 561.863 32.9V28.685L561.91 24.5802L560.541 28.7481L559.157 32.8529C558.922 33.5763 558.434 33.8598 557.821 33.8598C557.176 33.8598 556.704 33.5613 556.452 32.8379L555.037 28.7491L553.731 24.6443L553.778 28.686V32.901C553.778 33.436 553.369 33.8759 552.787 33.8759C552.221 33.8759 551.812 33.435 551.812 32.901V24.487C551.812 23.3228 552.442 22.6465 553.543 22.6465C554.581 22.6465 555.163 23.1965 555.493 24.2034L556.939 28.4966L557.82 31.4222L558.717 28.4966L560.163 24.2034C560.494 23.1965 561.06 22.6465 562.098 22.6465C563.199 22.6465 563.812 23.3067 563.812 24.487L563.828 32.9Z" fill="#666D80"/>
<path fill-rule="evenodd" clip-rule="evenodd" d="M686.149 23.5407C689.834 23.5407 691.976 25.8421 691.976 29.1587L691.952 31.2008C691.95 31.2264 691.939 31.2506 691.92 31.268C691.9 31.2855 691.876 31.2953 691.849 31.2953H683.112C683.112 33.6502 684.305 35.0434 686.599 35.0434C687.982 35.0434 688.851 34.6359 689.818 33.709C689.837 33.691 689.862 33.6812 689.889 33.6812C689.915 33.6812 689.94 33.691 689.959 33.709L691.623 35.1788C691.633 35.1877 691.641 35.1984 691.647 35.2104C691.653 35.2225 691.656 35.2355 691.657 35.2488C691.657 35.2621 691.655 35.2754 691.65 35.2879C691.646 35.3004 691.639 35.3119 691.629 35.3215C690.98 36.0145 690.192 36.5653 689.316 36.9383C688.44 37.3115 687.496 37.4989 686.542 37.4885C683.033 37.4885 680.321 35.7089 680.321 30.4868V30.3231C680.328 28.956 680.505 27.7707 680.942 26.7911C681.878 24.6955 683.778 23.5407 686.149 23.5407ZM689.299 29.0212L689.295 28.8006C689.269 28.1686 689.189 27.862 688.919 27.3938C688.487 26.6201 687.52 26.0899 686.228 26.0899C684.938 26.0899 683.942 26.6201 683.51 27.3938C683.241 27.862 683.187 28.1676 683.161 28.8006V29.0212H689.299ZM713.5 23.5407C717.185 23.5407 719.327 25.8421 719.327 29.1587L719.305 31.2008C719.303 31.2266 719.291 31.2508 719.272 31.2684C719.253 31.2859 719.227 31.2955 719.201 31.2953H710.464C710.464 33.6502 711.656 35.0434 713.951 35.0434C715.334 35.0434 716.204 34.6359 717.17 33.709C717.189 33.6908 717.214 33.6806 717.241 33.6806C717.268 33.6806 717.293 33.6908 717.312 33.709L718.975 35.1788C718.985 35.1877 718.993 35.1984 718.999 35.2104C719.005 35.2225 719.008 35.2355 719.008 35.2488C719.009 35.2621 719.007 35.2754 719.002 35.2879C718.998 35.3004 718.99 35.3119 718.981 35.3215C718.332 36.0144 717.545 36.565 716.669 36.9382C715.793 37.3113 714.848 37.4988 713.895 37.4885C710.386 37.4885 707.672 35.7089 707.672 30.4868V30.3231C707.68 28.956 707.857 27.7707 708.294 26.7911C709.23 24.6955 711.129 23.5407 713.5 23.5407ZM716.648 29.0212V28.8006C716.623 28.1686 716.541 27.862 716.272 27.3938C715.841 26.6201 714.872 26.0899 713.581 26.0899C712.291 26.0899 711.295 26.6201 710.863 27.3938C710.594 27.862 710.542 28.1676 710.514 28.8006V29.0212H716.648ZM668.045 23.8032C668.044 23.7896 668.047 23.7761 668.052 23.7635C668.057 23.7509 668.064 23.7394 668.074 23.7297C668.083 23.7196 668.095 23.7117 668.108 23.7063C668.121 23.7009 668.135 23.6981 668.149 23.6981H679.068C679.105 23.6981 679.14 23.717 679.158 23.7495C679.167 23.7652 679.172 23.7829 679.171 23.8008C679.171 23.8188 679.166 23.8362 679.156 23.8514L672.361 34.8522H679.041C679.098 34.8522 679.143 34.8975 679.143 34.953V37.2271C679.143 37.2534 679.133 37.2796 679.114 37.2975C679.104 37.3072 679.093 37.3149 679.08 37.3201C679.067 37.3253 679.054 37.3281 679.04 37.3279H667.808C667.79 37.3279 667.772 37.3231 667.756 37.3139C667.74 37.3046 667.727 37.2913 667.718 37.2754C667.709 37.26 667.705 37.2426 667.705 37.2249C667.705 37.2072 667.71 37.1898 667.719 37.1746L674.545 26.1781H668.149C668.135 26.1782 668.121 26.1757 668.109 26.1707C668.096 26.1656 668.084 26.1582 668.075 26.1486C668.065 26.1393 668.058 26.1281 668.053 26.1159C668.047 26.1036 668.045 26.0904 668.045 26.0773V23.8032ZM741.314 20.1915C741.327 20.1911 741.341 20.1934 741.353 20.1982C741.366 20.2032 741.377 20.2106 741.387 20.2199C741.397 20.2294 741.405 20.2406 741.41 20.2531C741.415 20.2654 741.417 20.2789 741.417 20.2923V23.7035H744.142C744.199 23.7035 744.244 23.7475 744.244 23.8032V26.0793C744.244 26.0926 744.242 26.1058 744.236 26.1181C744.231 26.1305 744.224 26.1416 744.214 26.1509C744.205 26.1604 744.193 26.1678 744.181 26.1727C744.168 26.1778 744.155 26.1803 744.142 26.1801H741.417V32.5677C741.417 34.1425 742.101 34.8334 743.457 34.8943C743.594 34.9016 743.731 34.9016 743.868 34.8943C743.895 34.8931 743.921 34.9024 743.942 34.9205C743.963 34.9383 743.975 34.9625 743.977 34.9898V37.3164C743.977 37.3426 743.966 37.3677 743.948 37.3866C743.93 37.4054 743.905 37.4164 743.878 37.4172C743.741 37.4245 743.589 37.4245 743.341 37.4245C740.935 37.4245 738.737 36.2655 738.737 33.3069V26.179H736.904C736.891 26.1792 736.878 26.1767 736.865 26.1718C736.853 26.1667 736.841 26.1593 736.832 26.15C736.822 26.1405 736.815 26.1294 736.81 26.117C736.804 26.1048 736.802 26.0917 736.802 26.0782V23.8021C736.802 23.7465 736.847 23.7024 736.904 23.7024H738.737V20.2912C738.737 20.2357 738.784 20.1904 738.84 20.1904H741.315L741.314 20.1915ZM754.667 30.4584C755.682 31.1577 756.154 32.1183 756.081 33.5178C755.939 36.2224 753.414 37.4907 750.743 37.4907C748.658 37.4907 746.619 36.698 745.414 35.3699C745.396 35.3499 745.388 35.324 745.389 35.2975C745.391 35.2712 745.403 35.2466 745.423 35.2292L747.067 33.7751C747.087 33.7575 747.113 33.7484 747.139 33.7493C747.166 33.7504 747.191 33.7614 747.21 33.7803C748.125 34.6948 749.257 35.1505 750.57 35.1505C751.705 35.1505 753.389 34.7304 753.422 33.3656C753.458 31.964 751.609 31.8864 750.569 31.7026C749.043 31.4338 747.49 31.1336 746.499 30.0753C746.157 29.7151 745.9 29.2831 745.749 28.8112C745.543 28.1208 745.515 27.39 745.668 26.6862C745.795 26.0817 746.08 25.5207 746.493 25.0588C746.918 24.6022 747.438 24.2428 748.017 24.0057C748.85 23.6836 749.738 23.5252 750.632 23.5396C751.307 23.5434 751.978 23.6319 752.63 23.8032C753.218 23.9712 753.779 24.221 754.293 24.5454C754.725 24.8216 755.107 25.1659 755.424 25.5638C755.433 25.5735 755.439 25.5849 755.443 25.5971C755.447 25.6093 755.448 25.6222 755.447 25.635C755.446 25.6477 755.442 25.6602 755.435 25.6713C755.429 25.6826 755.421 25.6924 755.41 25.7003L753.731 27.1859C753.721 27.1954 753.71 27.2028 753.697 27.2077C753.685 27.2125 753.671 27.2149 753.658 27.2143C753.644 27.2139 753.631 27.2106 753.619 27.2049C753.607 27.1991 753.596 27.1909 753.587 27.1807C752.873 26.4205 751.87 26.1276 751.074 26.0604C750.385 26.0017 749.653 26.0247 748.954 26.3858C748.736 26.4929 748.554 26.6583 748.426 26.8631C748.298 27.068 748.231 27.3041 748.231 27.545C748.209 28.4069 748.483 28.8248 750.717 29.1996C752.402 29.4831 753.75 29.8306 754.667 30.4584ZM733.31 21.1249C732.264 21.1249 731.417 20.2944 731.417 19.2707C731.417 18.2471 732.264 17.4166 733.31 17.4166C734.356 17.4166 735.203 18.246 735.203 19.2707C735.203 20.2944 734.356 21.1249 733.31 21.1249ZM725.536 23.7035H734.543C734.6 23.7035 734.645 23.7475 734.645 23.8032V37.2334C734.645 37.2467 734.643 37.2599 734.638 37.2722C734.632 37.2846 734.625 37.2957 734.615 37.3051C734.606 37.3145 734.594 37.3219 734.582 37.3268C734.57 37.3319 734.556 37.3344 734.543 37.3342H732.07C732.043 37.3341 732.017 37.3235 731.998 37.3049C731.989 37.2956 731.981 37.2844 731.976 37.2722C731.97 37.2599 731.968 37.2467 731.968 37.2334V26.1801H725.53V37.2334C725.529 37.2602 725.518 37.2857 725.499 37.3045C725.48 37.3233 725.454 37.334 725.427 37.3342H722.952C722.926 37.3341 722.9 37.3235 722.881 37.3049C722.871 37.2956 722.863 37.2844 722.858 37.2722C722.853 37.2599 722.85 37.2467 722.85 37.2334V26.1759H720.781C720.768 26.176 720.755 26.1735 720.742 26.1686C720.73 26.1635 720.718 26.1561 720.709 26.1468C720.699 26.1373 720.692 26.1262 720.686 26.1139C720.681 26.1017 720.679 26.0885 720.679 26.0751V23.7989C720.68 23.773 720.692 23.7487 720.711 23.731C720.73 23.7132 720.755 23.7033 720.781 23.7035H722.85V21.5816C722.85 18.835 724.779 17.34 727.492 17.34H727.741C728.32 17.3424 728.898 17.3961 729.467 17.5006C729.49 17.5044 729.511 17.5159 729.526 17.5331C729.542 17.5502 729.551 17.5721 729.552 17.5951V19.8555C729.552 19.8699 729.549 19.8843 729.543 19.8973C729.537 19.9105 729.528 19.922 729.517 19.9311C729.506 19.9404 729.493 19.9471 729.479 19.9507C729.465 19.9544 729.45 19.9548 729.436 19.9522C728.859 19.881 728.278 19.8488 727.697 19.8555C726.593 19.8776 725.619 20.4183 725.538 21.8188V23.7035H725.536ZM703.858 24.7691C705.113 25.903 705.521 27.3591 705.521 28.85V37.2219C705.521 37.2352 705.518 37.2484 705.513 37.2607C705.508 37.2731 705.501 37.2842 705.491 37.2935C705.481 37.303 705.47 37.3104 705.458 37.3153C705.445 37.3204 705.432 37.3228 705.419 37.3227H702.945C702.931 37.3228 702.918 37.3204 702.906 37.3153C702.893 37.3104 702.882 37.303 702.872 37.2935C702.863 37.2842 702.855 37.2731 702.85 37.2607C702.845 37.2484 702.842 37.2352 702.842 37.2219V28.8469C702.842 27.5156 701.936 26.4825 700.631 26.2715C699.814 26.1382 698.602 26.1916 697.892 26.6253C697.309 26.9823 696.767 27.6133 696.767 28.3219V37.2271C696.768 37.2403 696.765 37.2534 696.76 37.2655C696.754 37.2777 696.746 37.2886 696.737 37.2975C696.717 37.3168 696.691 37.3278 696.664 37.3279H694.189C694.176 37.3281 694.162 37.3256 694.15 37.3205C694.137 37.3156 694.126 37.3082 694.116 37.2988C694.107 37.2894 694.099 37.2783 694.094 37.2659C694.089 37.2537 694.086 37.2404 694.086 37.2271V23.8032C694.086 23.7475 694.133 23.7035 694.189 23.7035H696.665C696.722 23.7035 696.767 23.7475 696.767 23.8032V24.7932L696.892 24.6829C697.063 24.5359 697.244 24.3995 697.434 24.2756C698.327 23.6961 699.237 23.5418 700.296 23.5418C701.814 23.5418 702.978 23.9712 703.858 24.7691ZM659.474 19.6267V22.4036L641.867 31.4044V28.6505L648.88 25.0641L641.867 23.3413V20.8193L652.206 23.3632L656.172 21.3349L641.867 17.8187V15.2969L659.474 19.6267ZM641.867 37.2135V34.4345L659.474 25.4337V28.1928L652.462 31.7782L659.474 33.502V36.0219L649.133 33.479L645.167 35.5073L659.474 39.0245V41.5444L641.867 37.2135Z" fill="#666D80"/>
<path d="M838.039 25.3133C838.039 26.7663 837.444 28.0512 836.471 29.0563C835.39 30.1736 833.823 30.4544 833.823 31.4033C833.823 32.688 835.823 32.2972 837.741 34.2811C839.012 35.5944 839.794 37.3261 839.794 39.3374C839.794 43.3039 836.714 46.4613 832.851 46.4613C828.987 46.4601 825.906 43.3071 825.906 39.3385C825.906 37.3271 826.69 35.5955 827.96 34.2821C829.878 32.2994 831.878 32.6902 831.878 31.4054C831.878 30.4554 830.31 30.1758 829.229 29.0584C828.256 28.0522 827.662 26.7675 827.662 25.2592C827.662 22.3539 829.959 20.0068 832.769 20.0068C833.31 20.0068 833.796 20.0916 834.201 20.0916C834.931 20.0916 835.309 19.7559 835.309 19.2252C835.309 18.9181 835.174 18.5262 835.174 18.1078C835.174 17.1578 835.958 16.3751 836.903 16.3751C837.849 16.3751 838.606 17.1853 838.606 18.1629C838.606 19.1967 837.822 19.6722 837.228 19.8956C836.742 20.063 836.363 20.2866 836.363 20.7896C836.363 21.7364 838.039 22.659 838.039 25.3133ZM837.498 39.3395C837.498 36.5751 835.526 34.3393 832.851 34.3393C830.175 34.3393 828.203 36.5741 828.203 39.3395C828.203 42.0774 830.175 44.3409 832.851 44.3409C835.525 44.3409 837.498 42.0742 837.498 39.3395ZM835.905 25.2571C835.905 23.4979 834.527 22.0447 832.852 22.0447C831.176 22.0447 829.799 23.4979 829.799 25.2571C829.799 27.0174 831.176 28.4706 832.852 28.4706C834.527 28.4706 835.905 27.0174 835.905 25.2571ZM847.764 20.2844C848.629 20.2844 849.277 20.9548 849.277 21.7926C849.277 22.6305 848.656 23.3009 847.792 23.3009C846.9 23.3009 846.413 22.7151 845.522 22.7151C844.657 22.7151 843.981 23.357 843.981 24.4469V33.2462C843.981 33.5612 843.86 33.8631 843.645 34.0858C843.429 34.3084 843.137 34.4335 842.833 34.4335C842.528 34.4335 842.236 34.3084 842.021 34.0858C841.805 33.8631 841.684 33.5612 841.684 33.2462V21.4017C841.683 21.2458 841.71 21.091 841.766 20.9462C841.822 20.8013 841.906 20.6695 842.011 20.5578C842.117 20.4463 842.242 20.3573 842.381 20.2961C842.52 20.2348 842.669 20.2024 842.82 20.2008C843.981 20.2008 843.765 21.3456 844.927 21.3456C846.035 21.3456 846.44 20.2844 847.764 20.2844ZM850.278 27.3246C850.278 23.1059 853.088 20.0609 856.952 20.0609C860.492 20.0609 863.302 22.7427 863.302 26.4031C863.302 27.2684 862.762 27.8552 861.978 27.8552H853.197C852.818 27.8552 852.683 27.995 852.683 28.3021C852.683 29.0012 853.223 30.286 854.035 31.1237C854.844 31.9615 855.953 32.4646 857.52 32.4646C858.682 32.4646 859.708 32.0176 860.492 31.4308C860.735 31.236 861.005 31.1237 861.276 31.1237C861.843 31.1237 862.302 31.6543 862.302 32.2136C862.302 32.5483 862.194 32.8279 861.924 33.0788C860.789 34.0575 859.195 34.5882 857.466 34.5882C853.278 34.5882 850.278 31.4595 850.278 27.3246ZM859.843 23.3019C859.086 22.5192 858.114 22.1284 856.952 22.1284C855.791 22.1284 854.709 22.604 853.926 23.4131C853.304 24.056 852.872 24.8938 852.872 25.453C852.872 25.7327 853.034 25.845 853.385 25.845H860.411C860.735 25.845 860.898 25.7327 860.898 25.453C860.898 24.7826 860.384 23.86 859.843 23.3019ZM865.626 27.3246C865.626 23.1059 868.435 20.0609 872.299 20.0609C875.84 20.0609 878.65 22.7427 878.65 26.4031C878.65 27.2684 878.109 27.8552 877.325 27.8552H868.544C868.165 27.8552 868.031 27.995 868.031 28.3021C868.031 29.0012 868.57 30.286 869.382 31.1237C870.192 31.9615 871.299 32.4646 872.867 32.4646C874.029 32.4646 875.056 32.0176 875.839 31.4308C876.083 31.236 876.353 31.1237 876.622 31.1237C877.19 31.1237 877.65 31.6543 877.65 32.2136C877.65 32.5483 877.541 32.8279 877.271 33.0788C876.137 34.0575 874.543 34.5882 872.813 34.5882C868.625 34.5882 865.626 31.4595 865.626 27.3246ZM875.19 23.3019C874.434 22.5192 873.461 22.1284 872.299 22.1284C871.138 22.1284 870.057 22.604 869.273 23.4131C868.652 24.056 868.219 24.8938 868.219 25.453C868.219 25.7327 868.382 25.845 868.733 25.845H875.758C876.083 25.845 876.244 25.7327 876.244 25.453C876.244 24.7826 875.731 23.86 875.19 23.3019ZM892.186 34.4483C892.034 34.4496 891.882 34.4195 891.74 34.3596C891.599 34.2997 891.47 34.2112 891.362 34.0994C891.254 33.9878 891.168 33.8548 891.11 33.7085C891.052 33.5622 891.023 33.4055 891.024 33.2474V25.649C891.024 23.6652 889.511 22.1569 887.565 22.1569C885.593 22.1569 884.08 23.6927 884.08 25.649V33.2474C884.08 33.5622 883.959 33.8641 883.744 34.0869C883.528 34.3095 883.236 34.4346 882.932 34.4346C882.627 34.4346 882.335 34.3095 882.12 34.0869C881.904 33.8641 881.783 33.5622 881.783 33.2474V21.3743C881.783 20.7313 882.297 20.2008 882.891 20.2008C884.026 20.2008 883.972 21.263 884.567 21.263C885.161 21.263 885.971 20.0609 888.079 20.0609C891.024 20.0609 893.32 22.6028 893.32 25.649V33.2474C893.322 33.4032 893.295 33.5579 893.239 33.7026C893.183 33.8473 893.1 33.9793 892.994 34.0908C892.889 34.2023 892.763 34.2913 892.625 34.3527C892.486 34.4141 892.337 34.4466 892.186 34.4483ZM907.696 34.4483C907.543 34.4496 907.392 34.4195 907.25 34.3596C907.108 34.2997 906.98 34.2112 906.872 34.0994C906.764 33.9878 906.678 33.8548 906.62 33.7085C906.562 33.5622 906.533 33.4055 906.534 33.2474V25.6479C906.534 23.6652 905.021 22.1559 903.075 22.1559C901.103 22.1559 899.59 23.6917 899.59 25.6479V33.2474C899.59 33.5622 899.469 33.8641 899.254 34.0869C899.038 34.3095 898.746 34.4346 898.442 34.4346C898.137 34.4346 897.845 34.3095 897.63 34.0869C897.414 33.8641 897.293 33.5622 897.293 33.2474V14.4178C897.293 14.1029 897.414 13.8009 897.63 13.5782C897.845 13.3556 898.137 13.2305 898.442 13.2305C898.746 13.2305 899.038 13.3556 899.254 13.5782C899.469 13.8009 899.59 14.1029 899.59 14.4178V20.5926C899.59 20.9273 899.724 21.1221 900.076 21.1221C900.67 21.1221 901.481 20.0609 903.589 20.0609C906.534 20.0609 908.83 22.6028 908.83 25.6479V33.2474C908.832 33.4033 908.804 33.5581 908.748 33.7029C908.692 33.8478 908.609 33.9796 908.504 34.0913C908.398 34.2028 908.273 34.2918 908.134 34.353C907.995 34.4143 907.847 34.4467 907.696 34.4483ZM911.989 27.3246C911.989 23.2744 915.123 20.0609 919.067 20.0609C923.013 20.0609 926.147 23.2744 926.147 27.3246C926.147 31.3759 923.012 34.5882 919.068 34.5882C915.125 34.5882 911.989 31.3759 911.989 27.3246ZM923.853 27.3246C923.853 24.503 921.827 22.1845 919.07 22.1845C916.341 22.1845 914.315 24.504 914.315 27.3246C914.315 30.1461 916.341 32.4646 919.07 32.4646C921.826 32.4646 923.853 30.1461 923.853 27.3246ZM930.444 20.2008C931.092 20.2008 931.605 20.7303 931.605 21.4017V29.0001C931.605 30.9839 933.118 32.4922 935.065 32.4922C937.037 32.4922 938.55 30.9564 938.55 29.0001V21.4017C938.55 21.0869 938.671 20.785 938.886 20.5622C939.102 20.3396 939.394 20.2145 939.698 20.2145C940.003 20.2145 940.295 20.3396 940.51 20.5622C940.726 20.785 940.847 21.0869 940.847 21.4017V33.2748C940.847 33.9167 940.333 34.4473 939.739 34.4473C938.604 34.4473 938.658 33.3861 938.063 33.3861C937.469 33.3861 936.659 34.5872 934.55 34.5872C931.605 34.5872 929.31 32.0452 929.31 29.0001V21.4017C929.312 20.7313 929.823 20.2008 930.444 20.2008ZM944.926 33.5544C944.413 33.2187 944.061 32.884 944.061 32.2411C944.061 31.6268 944.52 31.1522 945.088 31.1522C945.764 31.1522 946.061 31.5707 946.629 31.8778C947.33 32.2972 948.141 32.5207 949.141 32.5207C950.978 32.5207 951.897 31.6543 951.897 30.5931C951.897 29.0849 950.546 28.8053 948.709 28.3021C946.439 27.6878 944.251 26.9888 944.251 24.2795C944.251 21.8773 946.033 20.0609 949.195 20.0609C950.438 20.0609 951.6 20.3966 952.519 20.9824C952.843 21.1783 953.167 21.5977 953.167 22.0733C953.167 22.6876 952.681 23.2171 952.059 23.2171C951.653 23.2171 951.33 22.9387 950.924 22.659C950.519 22.3804 949.924 22.1294 949.114 22.1294C947.304 22.1294 946.52 22.9387 946.52 24.0284C946.52 25.453 947.845 25.7877 949.736 26.2633C951.951 26.8214 954.139 27.5481 954.139 30.3135C954.139 32.7167 952.41 34.5882 949.087 34.5882C947.465 34.5882 946.007 34.2525 944.926 33.5544ZM956.302 27.3246C956.302 23.1059 959.112 20.0609 962.976 20.0609C966.516 20.0609 969.326 22.7427 969.326 26.4031C969.326 27.2684 968.786 27.8552 968.002 27.8552H959.221C958.842 27.8552 958.708 27.995 958.708 28.3021C958.708 29.0012 959.247 30.286 960.058 31.1237C960.869 31.9615 961.976 32.4646 963.544 32.4646C964.706 32.4646 965.732 32.0176 966.516 31.4308C966.759 31.236 967.029 31.1237 967.299 31.1237C967.866 31.1237 968.325 31.6543 968.325 32.2136C968.325 32.5483 968.218 32.8279 967.948 33.0788C966.813 34.0575 965.219 34.5882 963.49 34.5882C959.304 34.5882 956.302 31.4595 956.302 27.3246ZM965.87 23.3019C965.113 22.5192 964.141 22.1284 962.979 22.1284C961.817 22.1284 960.736 22.604 959.952 23.4131C959.331 24.056 958.899 24.8938 958.899 25.453C958.899 25.7327 959.061 25.845 959.412 25.845H966.438C966.761 25.845 966.923 25.7327 966.923 25.453C966.923 24.7826 966.41 23.86 965.87 23.3019Z" fill="#666D80"/>
<g opacity="0.7">
<mask id="mask0_1915_7386" style="mask-type:luminance" maskUnits="userSpaceOnUse" x="92" y="88" width="100" height="38">
<path d="M192 88H92V126H192V88Z" fill="white"/>
</mask>
<g mask="url(#mask0_1915_7386)">
<path opacity="0.87" d="M191.492 109.255C191.241 109.093 190.938 109.034 190.645 109.09C190.352 109.146 190.091 109.312 189.917 109.555C189.855 109.645 188.496 111.568 186.118 111.568C185.192 111.568 184.482 111.298 184.018 110.727C183.987 110.697 183.957 110.637 183.926 110.607C183.926 110.607 183.957 110.607 183.957 110.577C189.577 107.453 189.516 104.781 189.269 103.79C188.929 102.589 187.848 101.808 186.458 101.808C183.246 101.808 181.115 105.291 181.115 108.535C181.115 108.955 181.146 109.345 181.208 109.735C180.065 110.547 178.305 111.568 176.761 111.568C175.865 111.568 175.186 111.298 174.753 110.787C174.601 110.606 174.477 110.404 174.383 110.187C178.676 108.985 180.312 106.312 180.003 104.18C179.818 102.799 178.737 101.808 177.409 101.808C174.414 101.808 172.252 104.871 171.912 107.874C171.325 107.814 170.832 107.664 170.368 107.364C170.43 106.883 170.491 106.402 170.491 105.952C170.491 104.961 170.306 104.12 169.936 103.459C169.441 102.589 168.607 102.109 167.65 102.109C167.125 102.109 166.662 102.379 166.384 102.859C165.828 103.849 166.199 105.772 167.218 107.303C167.403 107.603 167.619 107.873 167.866 108.144C167.31 109.886 166.136 111.538 164.654 111.538C163.974 111.538 163.481 111.328 163.048 110.907C162.462 110.277 162.06 109.165 161.937 107.754C166.137 102.649 168.206 97.634 167.032 95.261C166.631 94.451 165.89 94 164.994 94C162.091 94 160.362 97.664 159.682 105.201C159.643 105.741 159.623 106.282 159.62 106.823C158.076 108.865 155.513 111.538 153.228 111.538C152.578 111.538 152.085 111.328 151.776 110.877C151.746 110.847 151.714 110.787 151.683 110.757C151.714 110.757 151.745 110.727 151.776 110.697C157.428 107.153 157.335 104.481 157.057 103.52C156.748 102.469 155.76 101.778 154.494 101.778C151.22 101.778 148.996 105.441 148.996 108.865C148.996 109.165 149.027 109.465 149.058 109.765C148.008 110.486 147.174 111.147 146.34 111.778C146.464 110.847 146.65 109.646 146.865 107.874C146.927 107.514 146.958 107.214 146.989 107.064C147.174 105.772 144.982 105.501 144.734 106.943C144.488 108.444 143.839 111.538 142.017 111.538C140.936 111.538 140.349 110.366 140.473 108.655C140.627 105.952 142.14 103.76 143.993 103.76C144.642 103.76 144.951 104.42 144.951 104.42C145.538 105.441 147.36 104.57 146.958 103.49C146.773 103.009 146.186 101.778 144.055 101.778C139.731 101.778 138.372 106.042 138.187 108.865C138.157 109.315 138.157 109.765 138.218 110.216C137.6 110.936 136.89 111.538 136.18 111.538C135.5 111.538 135.068 110.787 135.315 109.075C135.562 107.423 135.747 106.072 135.84 105.291C136.365 101.718 131.763 101.808 131.763 101.808C131.763 101.808 131.702 99.706 129.941 99.706C129.046 99.706 128.211 100.396 128.211 101.688C128.211 102.888 129.231 103.489 129.231 103.489C129.015 105.351 128.119 111.538 126.111 111.538C125.216 111.538 125.154 110.607 125.247 109.946C125.371 109.045 125.525 107.483 125.587 107.093C125.772 105.802 123.579 105.532 123.332 106.973C123.085 108.475 122.437 111.568 120.614 111.568C119.534 111.568 118.947 110.246 119.039 108.625C119.194 105.892 120.707 103.79 122.56 103.79C123.209 103.79 123.518 104.45 123.518 104.45C124.012 105.471 125.896 104.75 125.525 103.52C125.371 102.979 124.753 101.808 122.622 101.808C118.298 101.808 116.939 106.072 116.754 108.895C116.724 109.345 116.724 109.765 116.754 110.156C116.136 110.967 115.395 111.568 114.684 111.568C114.036 111.568 113.542 111.238 113.666 109.826C113.728 109.166 114.5 104.631 114.469 103.82C114.376 102.438 113.727 101.838 112.152 101.838C110.485 101.838 109.249 102.678 108.724 103.189C108.724 103.189 109.497 97.483 109.651 96.372C109.805 95.232 107.52 95.202 107.396 96.372C107.335 96.882 106.716 101.387 106.161 105.592C104.864 108.354 102.301 112.559 98.5011 112.559C91.3061 112.559 94.6111 97.303 101.374 97.303C102.949 97.303 102.239 99.766 101.189 101.237C100.448 102.318 102.331 103.52 103.381 101.807C106.285 97.033 103.845 95.261 101.529 95.261C91.5221 95.261 87.8161 114.661 98.2241 114.661C101.652 114.661 103.968 112.799 105.451 110.757C105.296 111.897 105.204 112.679 105.173 112.829C104.988 114.03 107.303 113.939 107.427 112.919C107.52 112.289 107.86 109.616 108.137 107.544C108.292 106.372 109.774 104.21 111.442 104.21C111.844 104.21 112.091 104.6 112.06 104.93C111.998 105.321 111.288 110.396 111.319 111.147C111.442 113.279 113.017 113.76 114.499 113.76C115.673 113.76 116.63 113.22 117.403 112.378C117.928 113.219 118.731 113.76 119.843 113.76C122.344 113.76 123.209 112.018 123.209 112.018C123.209 112.018 123.518 113.76 125.679 113.76C130.065 113.76 131.084 106.342 131.3 103.85C131.547 103.85 133.091 103.94 133.37 104.78C133.617 105.592 132.844 108.174 132.783 110.847C132.752 112.258 133.277 113.76 135.563 113.76C136.952 113.76 138.063 113.13 138.836 112.438C139.361 113.249 140.164 113.76 141.245 113.76C142.48 113.76 143.314 113.37 143.839 112.979C143.808 113.219 143.777 113.429 143.746 113.669V113.699C143.746 113.669 137.971 117.724 137.971 121.537C137.971 123.039 138.681 124 140.504 124C144.117 124 145.26 119.285 145.784 115.411C145.815 115.231 145.846 115.051 145.846 114.901C146.402 114.481 146.927 114.091 147.452 113.7C148.215 113.117 148.988 112.546 149.769 111.988C149.799 112.048 149.861 112.108 149.892 112.168C150.664 113.189 151.807 113.73 153.197 113.73C155.822 113.73 158.261 111.778 159.991 109.856C160.269 110.786 160.671 111.688 161.35 112.408C162.184 113.279 163.326 113.76 164.624 113.76C167.125 113.76 168.854 111.808 169.781 109.556C170.461 109.856 171.233 110.036 172.035 110.096C172.221 110.876 172.53 111.598 173.024 112.168C173.641 112.888 174.784 113.76 176.792 113.76C178.799 113.76 180.776 112.709 182.104 111.838L182.289 112.108C182.907 112.858 184.111 113.76 186.149 113.76C189.763 113.76 191.77 110.877 191.863 110.757C192.141 110.277 191.986 109.586 191.492 109.255ZM140.782 121.868C140.442 121.868 140.195 121.658 140.195 121.238C140.195 119.315 143.252 116.703 143.283 116.703C142.913 119.285 141.832 121.868 140.782 121.868ZM154.432 103.85C154.71 103.85 154.772 104.06 154.833 104.18C154.957 104.6 154.525 106.192 151.22 108.414C151.405 106.312 152.733 103.85 154.432 103.85ZM164.932 96.252C165.89 96.252 165.118 99.435 162.06 103.88C162.77 97.964 163.759 96.252 164.932 96.252ZM177.162 103.85C177.656 103.85 177.687 104.33 177.718 104.51C177.842 105.411 176.977 107.033 174.136 107.964C174.445 106.012 175.772 103.85 177.162 103.85ZM186.427 103.85C186.767 103.85 186.952 104.09 187.045 104.39C187.23 105.021 186.365 106.613 183.339 108.414C183.401 106.312 184.698 103.85 186.427 103.85Z" fill="black"/>
</g>
</g>
<path d="M319.705 114.538L313.182 108.076C312.083 106.983 310.275 106.983 309.176 108.076C308.077 109.169 308.077 110.967 309.176 112.06L317.702 120.514C318.801 121.607 320.609 121.607 321.708 120.514L329.721 112.546L325.69 108.562L319.705 114.538Z" fill="#666D80"/>
<path d="M344.205 102.102L331.698 114.541L319.19 102.102C318.091 101.009 316.283 101.009 315.184 102.102C314.085 103.195 314.085 104.993 315.184 106.086L329.694 120.517C330.794 121.61 332.601 121.61 333.701 120.517L348.211 106.086C349.311 104.993 349.311 103.195 348.211 102.102C347.112 101.009 345.304 101.009 344.205 102.102Z" fill="#666D80"/>
<path d="M354.219 112.06L345.718 120.515C344.619 121.608 342.811 121.608 341.712 120.515L321.192 100.108C320.092 99.0146 320.092 97.2169 321.192 96.1236C322.291 95.0304 324.099 95.0304 325.198 96.1236L343.715 114.538L350.213 108.076C351.312 106.983 353.12 106.983 354.219 108.076C355.318 109.169 355.318 110.967 354.219 112.06Z" fill="#666D80"/>
<path d="M342.201 96.1236C341.102 95.0304 339.294 95.0304 338.195 96.1236L325.688 108.562L329.694 112.546L342.201 100.108C343.301 99.0146 343.301 97.2169 342.201 96.1236Z" fill="#666D80"/>
<path d="M369.223 97.117H365.781V116.719H378.432V113.772H369.223V97.117ZM385.897 103.012C388.005 103.012 389.411 103.83 390.187 104.86L390.356 103.292H393.337V116.719H390.356L390.187 115.152C389.411 116.158 388.005 117 385.897 117C382.116 117 379.547 114.053 379.547 110.006C379.547 105.936 382.116 103.012 385.897 103.012ZM386.624 105.842C384.467 105.842 382.916 107.48 382.916 110.006C382.916 112.532 384.467 114.17 386.624 114.17C388.272 114.17 389.266 113.327 390.017 112.181V107.854C389.266 106.684 388.272 105.842 386.624 105.842ZM401.674 98.7777H398.354V103.292H395.736V106.006H398.354V111.971C398.354 115.222 400.365 116.977 403.54 116.977C404.922 116.977 405.94 116.602 406.642 116.181L405.77 113.678C405.358 113.912 404.752 114.099 403.855 114.099C402.547 114.099 401.674 113.304 401.674 111.947V106.006H405.867V103.292H401.674V98.7777ZM413.089 98.7777H409.769V103.292H407.151V106.006H409.769V111.971C409.769 115.222 411.78 116.977 414.955 116.977C416.337 116.977 417.355 116.602 418.058 116.181L417.185 113.678C416.773 113.912 416.167 114.099 415.27 114.099C413.962 114.099 413.089 113.304 413.089 111.947V106.006H417.282V103.292H413.089V98.7777ZM423.607 103.269H420.287V116.696H423.607V103.269ZM421.959 97C420.796 97 419.924 97.8187 419.924 98.9649C419.924 100.111 420.796 100.93 421.959 100.93C423.147 100.93 424.019 100.111 424.019 98.9649C424.019 97.8187 423.147 97 421.959 97ZM433.617 103.012C429.327 103.012 426.491 105.936 426.491 110.006C426.491 114.029 429.376 117 433.641 117C436.161 117 438.052 115.901 439.312 114.053L436.937 112.275C436.283 113.351 435.192 114.216 433.689 114.216C431.242 114.216 429.884 112.368 429.884 110.029C429.884 107.667 431.193 105.842 433.665 105.842C435.216 105.842 436.234 106.684 436.864 107.76L439.264 106.006C438.003 104.111 436.161 103.012 433.617 103.012ZM447.407 103.012C451.697 103.012 453.781 106.099 453.781 109.866V110.988H443.941C444.014 113.117 445.347 114.287 447.673 114.287C449.297 114.287 450.485 113.585 451.114 112.743L453.417 114.544C452.035 116.134 450.218 116.977 447.649 116.977C443.335 116.977 440.572 114.053 440.572 110.029C440.597 105.959 443.408 103.012 447.407 103.012ZM447.358 105.561C445.395 105.561 444.062 106.824 443.965 108.672H450.533C450.46 106.848 449.346 105.561 447.358 105.561Z" fill="#666D80"/>
<mask id="mask1_1915_7386" style="mask-type:luminance" maskUnits="userSpaceOnUse" x="550" y="91" width="140" height="34">
<path d="M689.339 91.9844H550.148V124.016H689.339V91.9844Z" fill="white"/>
</mask>
<g mask="url(#mask1_1915_7386)">
<path d="M551.545 92.0244H551.558C552.059 92.0276 552.543 92.2978 552.793 92.7718C555.282 97.4605 556.584 102.692 556.587 108.006L556.588 108.036C556.586 113.268 555.321 118.5 552.793 123.27C552.674 123.496 552.495 123.684 552.277 123.815C552.059 123.947 551.81 124.017 551.556 124.017H551.546C551.326 124.017 551.103 123.963 550.896 123.853C550.733 123.768 550.589 123.651 550.471 123.509C550.354 123.367 550.265 123.204 550.211 123.027C550.156 122.851 550.137 122.666 550.155 122.482C550.172 122.298 550.225 122.12 550.311 121.957C552.588 117.668 553.779 112.882 553.779 108.021C553.779 103.16 552.588 98.3732 550.311 94.0841C550.225 93.9211 550.172 93.7427 550.155 93.559C550.137 93.3753 550.156 93.1899 550.211 93.0137C550.265 92.8374 550.354 92.6737 550.471 92.532C550.589 92.3902 550.733 92.2732 550.896 92.1878C551.096 92.0816 551.319 92.0256 551.545 92.0244ZM558.935 95.4988C559.278 95.3561 559.664 95.3556 560.007 95.4974C560.351 95.6392 560.625 95.9118 560.77 96.2558C562.319 99.9812 563.115 103.979 563.111 108.017V108.025C563.111 112.081 562.323 116.037 560.77 119.784C560.472 120.5 559.651 120.839 558.935 120.542C558.765 120.473 558.61 120.37 558.48 120.24C558.35 120.11 558.246 119.955 558.176 119.785C558.105 119.615 558.069 119.432 558.069 119.248C558.069 119.063 558.105 118.881 558.175 118.71C559.581 115.329 560.304 111.701 560.302 108.036V108.021V108.006C560.304 104.341 559.581 100.712 558.175 97.331C557.878 96.6156 558.218 95.7946 558.935 95.4988ZM566.84 99.3576C567.201 99.2694 567.583 99.3289 567.9 99.5231C568.218 99.7173 568.446 100.03 568.534 100.393C569.132 102.884 569.43 105.445 569.431 108.006V108.036C569.431 110.596 569.132 113.157 568.533 115.647C568.444 116.009 568.216 116.322 567.899 116.516C567.582 116.71 567.201 116.77 566.84 116.682C566.661 116.64 566.492 116.563 566.343 116.455C566.194 116.347 566.068 116.211 565.972 116.054C565.875 115.897 565.811 115.722 565.781 115.54C565.752 115.358 565.759 115.172 565.802 114.992C566.349 112.709 566.625 110.369 566.623 108.02C566.623 105.675 566.35 103.329 565.802 101.05C565.759 100.87 565.752 100.684 565.781 100.501C565.81 100.319 565.874 100.144 565.971 99.9869C566.067 99.8296 566.194 99.693 566.343 99.585C566.492 99.477 566.661 99.3997 566.84 99.3576ZM573.533 103.452C573.718 103.417 573.908 103.419 574.093 103.459C574.277 103.498 574.452 103.575 574.606 103.685C574.76 103.794 574.891 103.933 574.99 104.094C575.089 104.256 575.155 104.435 575.184 104.622C575.352 105.746 575.431 106.875 575.423 108.006V108.036C575.431 109.168 575.351 110.299 575.184 111.419C575.155 111.606 575.089 111.785 574.99 111.947C574.89 112.108 574.76 112.247 574.606 112.356C574.452 112.465 574.277 112.542 574.093 112.582C573.908 112.622 573.718 112.625 573.533 112.589C572.789 112.449 572.3 111.724 572.411 110.974C572.555 109.999 572.623 109.017 572.614 108.036V108.021V108.006C572.622 107.023 572.555 106.04 572.411 105.067C572.302 104.335 572.806 103.589 573.533 103.452ZM578.179 108.036C578.179 107.153 578.895 106.438 579.779 106.438C580.662 106.438 581.378 107.153 581.378 108.036C581.378 108.918 580.662 109.633 579.779 109.633C578.895 109.633 578.179 108.918 578.179 108.036Z" fill="#666D80"/>
<path fill-rule="evenodd" clip-rule="evenodd" d="M592.719 99.7306V106.568H600.783C600.867 106.812 600.895 107.027 600.895 107.272C600.895 107.487 600.866 107.703 600.784 107.946H592.719V115.676C592.443 115.73 592.195 115.785 591.946 115.785C591.697 115.785 591.449 115.73 591.172 115.676V98.3257H601.805C601.86 98.5686 601.889 98.8116 601.889 99.0546C601.889 99.2711 601.86 99.514 601.805 99.7306H592.719ZM611.886 104.353C611.196 104.163 610.451 104.055 609.455 104.055C608.075 104.055 606.832 104.433 606.059 104.92V115.676C605.549 115.783 605.022 115.783 604.513 115.676V104.244C605.562 103.407 607.412 102.623 609.594 102.623C610.726 102.623 611.527 102.758 612.273 103.028C612.301 103.488 612.163 104.001 611.886 104.353ZM618.901 114.649C620.504 114.649 621.802 114.352 622.685 114.001V110.217C621.691 109.704 620.282 109.298 618.736 109.298C616.443 109.298 615.09 110.217 615.09 111.812C615.09 113.486 616.361 114.65 618.901 114.65L618.901 114.649ZM624.177 107.406V114.839C622.824 115.568 620.641 116.001 618.874 116.001C615.229 116.001 613.516 114.271 613.516 111.92C613.516 109.325 615.781 107.946 618.736 107.946C620.393 107.946 621.719 108.324 622.685 108.784V107.46C622.685 105.109 621.138 104.028 618.791 104.028C617.079 104.028 615.835 104.596 614.896 105.271C614.696 105.174 614.522 105.033 614.388 104.859C614.254 104.685 614.164 104.484 614.124 104.271C614.759 103.677 616.443 102.623 618.847 102.623C621.802 102.623 624.177 103.974 624.177 107.406ZM647.037 107.595V115.676C646.788 115.73 646.54 115.758 646.264 115.758C646.004 115.759 645.744 115.732 645.49 115.676V108.136C645.546 105.92 644.551 104.028 641.624 104.028C639.967 104.028 638.641 104.812 637.757 105.623C637.979 106.244 638.088 106.893 638.088 107.595V115.676C637.868 115.73 637.592 115.758 637.343 115.758C637.067 115.758 636.79 115.73 636.57 115.676V108.136C636.57 105.92 635.63 104.028 632.731 104.028C631.267 104.028 629.913 104.596 629.086 105.109V115.676C628.576 115.783 628.048 115.783 627.538 115.676V104.461C628.671 103.542 630.659 102.623 632.979 102.623C634.913 102.623 636.293 103.352 637.15 104.487C638.283 103.46 639.994 102.623 641.9 102.623C645.298 102.623 647.092 104.866 647.037 107.595ZM659.982 108.325C659.982 105.65 658.353 103.974 655.951 103.974C653.382 103.974 651.67 105.866 651.421 108.325H659.982ZM661.53 109.595H651.366C651.448 112.622 653.271 114.623 656.171 114.623C658.353 114.623 659.485 113.812 660.259 113.217C660.645 113.406 660.977 113.838 661.088 114.244C660.038 115.109 658.491 116 656.171 116C652.442 116 649.791 113.568 649.791 109.352C649.791 105.271 652.581 102.623 655.951 102.623C659.128 102.623 661.585 104.784 661.612 108.542C661.612 108.947 661.585 109.136 661.53 109.595ZM669.828 115.676V102.975C670.077 102.894 670.352 102.867 670.601 102.867C670.849 102.867 671.126 102.894 671.346 102.975V115.676C671.126 115.73 670.85 115.758 670.601 115.758C670.341 115.758 670.082 115.73 669.828 115.676ZM669.358 99.1905C669.358 98.5411 669.911 98.001 670.601 98.001C671.264 98.001 671.789 98.5421 671.789 99.1905C671.789 99.8663 671.264 100.379 670.601 100.379C670.274 100.38 669.959 100.256 669.726 100.033C669.493 99.8103 669.36 99.5073 669.358 99.1905ZM664.569 114.356C664.569 113.708 665.121 113.168 665.812 113.168C666.474 113.168 667 113.709 667 114.356C667 115.032 666.474 115.546 665.812 115.546C665.484 115.547 665.169 115.422 664.937 115.199C664.704 114.976 664.572 114.673 664.569 114.356ZM685.624 109.297C685.624 106.325 683.692 104.028 680.626 104.028C677.56 104.028 675.627 106.325 675.627 109.297C675.627 112.324 677.56 114.568 680.626 114.568C683.692 114.568 685.624 112.324 685.624 109.297ZM674.053 109.297C674.053 105.487 676.897 102.622 680.653 102.622C684.465 102.622 687.172 105.487 687.172 109.297C687.172 113.109 684.326 115.973 680.571 115.973C676.759 115.973 674.053 113.163 674.053 109.297Z" fill="#666D80"/>
</g>
<mask id="mask2_1915_7386" style="mask-type:luminance" maskUnits="userSpaceOnUse" x="794" y="95" width="130" height="35">
<path d="M794 95H924V130H794V95Z" fill="white"/>
</mask>
<g mask="url(#mask2_1915_7386)">
<path d="M798.297 114.306C799.352 113.807 799.901 112.957 800.055 111.851C800.121 111.384 800.143 110.884 800.308 110.438C800.527 109.843 800.868 109.28 801.176 108.663C800.187 108.514 799.22 108.132 798.769 107.133C799.978 106.612 801.154 106.112 802.363 105.602C801.857 105.241 801.363 104.965 801 104.582C800.637 104.189 800.418 103.679 800.055 103.094C801.527 103.041 802.835 103.2 804.121 102.669C803.868 102.18 803.571 101.755 803.417 101.277C803.132 100.384 802.769 99.4807 802.725 98.5667C802.615 96.2074 804.527 94.6982 806.901 95.2615C807.901 95.4953 808.824 96.0054 809.791 96.3986C810.34 96.6218 810.878 96.8556 811.472 97.1107V95.2615C812.505 95.8885 813.395 96.5156 814.461 96.7068C814.56 96.1117 814.658 95.5591 814.768 94.8789C815.417 95.4209 815.9 95.8672 816.428 96.2711C817.208 96.8556 817.241 96.8556 818.01 96.2818C818.537 95.8885 819.032 95.4421 819.691 94.9001C819.812 95.5484 819.911 96.101 820.021 96.7175C821.054 96.5156 821.955 95.9204 822.966 95.2508V97.0575C823.218 96.9831 823.449 96.9407 823.647 96.8556C824.592 96.4412 825.537 96.0054 826.482 95.5803C827.339 95.1977 828.24 95.0701 829.163 95.2402C830.965 95.5697 832.075 97.1426 831.734 99.0237C831.558 99.9696 831.141 100.862 830.811 101.776C830.701 102.074 830.515 102.34 830.339 102.669C831.613 103.2 832.921 103.052 834.251 103.094C834.02 104.327 833.185 105.018 832.031 105.581C833.284 106.123 834.437 106.623 835.657 107.143C835.261 108.153 834.283 108.514 833.064 108.716C834.24 109.598 834.24 110.831 834.437 111.99C834.591 112.893 835.009 113.637 835.822 114.115C836.25 114.37 836.129 114.54 835.8 114.753C834.789 115.401 833.701 115.391 832.591 115.082C832.404 115.029 832.207 114.965 831.943 114.87C831.899 115.167 831.855 115.444 831.833 115.709C831.69 117.016 831.119 118.111 830.108 118.993C830.009 119.078 829.8 119.163 829.69 119.131C827.899 118.515 826.108 118.791 824.328 119.153C822.592 119.503 820.878 119.971 819.142 120.269C816.933 120.641 814.779 120.279 812.637 119.695C810.791 119.195 808.912 118.759 806.978 118.791C806.329 118.802 805.67 118.919 805.044 119.089C804.703 119.174 804.505 119.11 804.275 118.898C803.242 117.92 802.747 116.719 802.626 115.348C802.615 115.21 802.582 115.082 802.56 114.88C801.033 115.444 799.605 115.476 798.297 114.519V114.306ZM824.207 108.525C824.174 108.461 824.141 108.397 824.108 108.334C823.911 108.376 823.702 108.387 823.526 108.472C822.998 108.727 822.504 109.014 821.977 109.258C821.834 109.322 821.592 109.311 821.46 109.226C820.889 108.854 820.306 108.472 819.79 108.025C819.339 107.632 818.845 107.207 818.592 106.686C818.153 105.815 818.328 104.901 818.966 104.146C819.658 103.317 820.625 102.998 821.669 103.2C824.163 103.689 825.987 105.135 827.284 107.207C828.13 108.557 828.46 109.992 827.658 111.416C828.218 111.809 828.745 112.202 829.306 112.553C829.361 112.585 829.602 112.457 829.635 112.362C829.679 112.223 829.646 112.043 829.591 111.894C829.405 111.331 829.207 110.778 828.954 110.066C829.811 110.268 830.58 110.449 831.493 110.661C830.778 109.333 829.559 108.684 828.405 107.951C829.141 107.781 829.789 107.622 830.58 107.441C829.712 106.941 828.998 106.591 828.361 106.144C827.405 105.464 826.493 104.72 825.57 103.997C823.515 102.382 821.229 101.925 818.691 102.669C818.339 102.775 818.12 102.956 818.043 103.296C817.955 103.711 817.856 104.125 817.768 104.54C817.702 104.869 817.735 105.273 817.252 105.284C816.768 105.284 816.779 104.869 816.724 104.55C816.669 104.284 816.636 104.008 816.603 103.732C816.285 104.04 815.581 104.019 815.823 104.678C816.351 106.112 815.988 107.175 814.702 108.036C814.131 108.419 813.593 108.844 813.021 109.216C812.889 109.301 812.648 109.333 812.516 109.269C811.988 109.024 811.483 108.727 810.955 108.482C810.769 108.397 810.549 108.387 810.351 108.344C810.329 108.397 810.307 108.461 810.285 108.514C810.813 109.195 811.769 109.322 812.384 109.896C812.12 110.31 812.12 110.31 811.703 110.172C811.12 109.981 810.527 109.768 809.944 109.588C809.758 109.535 809.549 109.545 809.351 109.524C809.329 109.588 809.318 109.641 809.296 109.705C809.966 110.342 810.999 110.332 811.736 110.831C811.67 111.256 811.395 111.256 811.076 111.192C810.461 111.076 809.857 110.969 809.241 110.884C809.131 110.874 808.999 110.98 808.879 111.033C808.967 111.129 809.032 111.267 809.142 111.32C809.285 111.394 809.461 111.405 809.615 111.437C810.065 111.543 810.516 111.639 810.966 111.745C810.977 111.809 810.988 111.873 811.01 111.936C810.483 112.16 809.944 112.383 809.417 112.606C810.362 115.189 812.922 118.154 818.438 117.75C821.284 117.537 824.79 114.87 825.108 112.627C824.559 112.393 824.02 112.16 823.405 111.894C824.218 111.437 825.13 111.681 825.68 111.012C825.427 110.937 825.174 110.906 824.943 110.937C824.416 111.012 823.9 111.118 823.383 111.224C823.031 111.299 822.834 111.171 822.768 110.799C823.471 110.544 824.152 110.3 824.823 110.023C824.976 109.96 825.064 109.768 825.174 109.63C824.987 109.609 824.79 109.524 824.636 109.577C824.009 109.768 823.383 109.97 822.768 110.204C822.405 110.342 822.218 110.236 822.13 109.875C822.746 109.354 823.669 109.184 824.207 108.525ZM805.351 110.108C805.406 110.162 805.45 110.215 805.505 110.268C805.165 111.022 804.692 111.756 804.945 112.712C805.296 112.447 805.549 112.202 805.857 112.021C806.175 111.83 806.527 111.681 806.868 111.522C806.285 110.289 806.186 109.524 806.67 108.344C807.703 105.772 809.659 104.114 812.362 103.317C812.9 103.158 813.56 103.243 814.142 103.339C814.768 103.434 815.263 103.264 815.592 102.637C814.505 102.297 813.406 102.286 812.296 102.446C810.824 102.648 809.67 103.456 808.549 104.316C807.197 105.358 805.945 106.548 804.307 107.186C804.209 107.228 804.121 107.281 804.022 107.324C804.044 107.388 804.066 107.452 804.088 107.515C804.747 107.664 805.406 107.813 806.121 107.972C804.89 108.706 803.681 109.343 803.022 110.682C803.89 110.47 804.615 110.289 805.351 110.108ZM820.504 105.284C821.109 105.804 821.691 105.74 822.273 105.326C822.636 105.985 822.526 106.569 822.109 107.196C822.856 106.814 823.141 106.155 822.922 105.422C822.735 104.773 822.054 104.295 821.35 104.316C820.625 104.338 819.966 104.869 819.834 105.549C819.702 106.219 819.966 106.803 820.515 107.026C820.218 106.453 820.098 105.889 820.504 105.284ZM901.367 129.292C900.664 129.175 899.95 129.122 899.268 128.952C896.664 128.282 894.697 126.9 893.983 124.254C893.807 123.595 893.829 122.872 893.84 122.16C896.367 125.583 899.708 126.698 903.719 125.327C906.971 124.212 908.135 121.48 908.652 118.249C908.388 118.462 908.234 118.579 908.08 118.706C907.311 119.355 906.399 119.652 905.4 119.578C903.84 119.461 902.861 118.409 902.685 116.804C902.509 115.274 902.971 113.818 903.29 112.351C903.675 110.619 904.147 108.908 904.422 107.165C904.565 106.229 904.389 105.241 904.345 104.274C904.345 104.189 904.334 104.104 904.334 103.997C905.279 103.604 906.191 103.572 907.081 104.072C908.113 104.656 908.333 105.602 908.113 106.644C907.63 108.961 907.092 111.278 906.597 113.594C906.498 114.073 906.432 114.583 906.498 115.05C906.608 115.816 907.333 116.134 907.959 115.667C908.465 115.295 909.015 114.806 909.224 114.253C909.795 112.734 910.257 111.171 910.674 109.598C911.114 107.951 911.443 106.282 911.817 104.635C911.85 104.497 911.894 104.369 911.948 104.199H915.531V104.412C915.487 104.508 915.432 104.603 915.41 104.699C914.487 108.663 913.586 112.638 912.652 116.591C912.179 118.6 911.806 120.662 911.081 122.596C909.861 125.88 907.465 128.112 903.884 129.005C903.345 129.143 902.773 129.196 902.224 129.281C901.949 129.292 901.663 129.292 901.367 129.292ZM850.799 95.5165C850.953 100.767 851.096 105.985 851.25 111.203C851.283 111.214 851.305 111.235 851.338 111.246C851.426 111.086 851.525 110.937 851.612 110.778C854.294 105.847 856.975 100.915 859.634 95.9735C859.832 95.6122 860.041 95.474 860.469 95.4847C861.689 95.5165 862.919 95.4953 864.216 95.4953C863.974 96.5261 863.733 97.5146 863.502 98.5029C862.337 103.37 861.15 108.249 859.997 113.127C859.656 114.572 859.436 116.049 859.579 117.548C859.81 119.865 861.194 121.289 863.59 121.64C863.7 121.65 863.799 121.661 863.974 121.682C863.403 122.734 862.491 123.223 861.37 123.329C858.085 123.648 855.678 121.587 855.436 118.324C855.283 116.219 855.777 114.211 856.282 112.202C856.535 111.192 856.766 110.183 856.898 109.12C856.447 109.938 855.997 110.757 855.557 111.586C854.195 114.104 852.832 116.634 851.492 119.163C851.316 119.503 851.107 119.61 850.733 119.599C849.909 119.578 849.096 119.588 848.217 119.588C848.052 115.731 847.887 111.926 847.734 108.132C847.701 108.121 847.657 108.121 847.624 108.11C847.481 108.642 847.349 109.184 847.195 109.715C846.294 112.829 845.371 115.943 844.47 119.057C844.349 119.461 844.162 119.62 843.701 119.61C842.459 119.578 841.218 119.599 839.91 119.599C842.888 113.446 843.767 106.782 845.569 100.288C843.492 99.9058 841.569 98.9918 839.448 99.3319C838.811 99.4381 838.207 99.6933 837.559 99.8845C837.569 99.8101 837.58 99.672 837.613 99.5551C837.921 98.4498 838.262 97.3445 838.525 96.2286C838.646 95.7397 838.932 95.4634 839.372 95.2721C840.668 94.7088 842.009 94.762 843.349 95.0383C844.228 95.2189 845.085 95.4634 845.954 95.6653C847.8 96.101 848.997 96.0692 850.799 95.5165ZM881.148 101.16C879.248 101.67 877.424 102.18 875.589 102.648C875.061 102.775 874.501 102.828 873.962 102.818C873.16 102.797 872.831 102.148 873.226 101.468C873.314 101.319 873.435 101.171 873.523 101.022C873.809 100.512 873.578 100.044 872.984 100.087C872.358 100.129 871.699 100.225 871.116 100.448C869.424 101.096 867.754 101.83 866.073 102.531C865.897 102.605 865.721 102.69 865.457 102.807C865.919 100.799 866.457 98.9069 866.765 96.9726C866.974 95.6654 867.578 95.0277 868.875 94.7301C871.072 94.2306 873.237 93.5398 875.435 93.0403C876.138 92.8809 876.94 92.9447 877.655 93.0935C878.633 93.2954 879.017 94.1987 878.611 95.0915C878.479 95.3997 878.248 95.676 878.16 95.9949C878.083 96.2605 878.028 96.6219 878.16 96.8131C878.27 96.9726 878.677 97.0257 878.94 97.0045C879.303 96.9832 879.665 96.8875 879.995 96.7494C880.149 96.6856 880.292 96.4625 880.335 96.2818C880.544 95.4635 880.72 94.6239 880.929 93.8055C880.962 93.678 881.137 93.4973 881.258 93.4973C882.335 93.4761 883.413 93.4867 884.566 93.4867C884.401 94.2413 884.248 94.9427 884.072 95.7291C884.5 95.6229 884.874 95.5166 885.258 95.4528C886.621 95.219 887.984 94.9852 889.357 94.7833C889.599 94.7514 889.873 94.8258 890.104 94.9108C890.599 95.1021 890.719 95.4848 890.5 95.9523C890.434 96.0798 890.324 96.1968 890.291 96.3243C890.225 96.6006 890.049 97.0152 890.17 97.132C890.39 97.3446 890.796 97.504 891.115 97.4827C891.895 97.4296 892.675 97.2915 893.445 97.1427C895.521 96.7494 897.609 96.5156 899.708 97.0045C900.796 97.2489 901.763 97.7059 902.554 98.588C902.136 98.588 901.784 98.5987 901.433 98.588C898.588 98.4817 895.95 99.2894 893.357 100.32C891.873 100.916 890.401 101.553 888.896 102.106C888.368 102.308 887.764 102.435 887.203 102.414C886.489 102.382 886.214 101.872 886.412 101.203C886.445 101.086 886.5 100.969 886.533 100.852C886.686 100.363 886.489 99.9484 885.972 100.012C884.984 100.118 884.006 100.363 883.05 100.607C882.918 100.639 882.83 100.979 882.786 101.192C881.972 104.688 881.159 108.196 880.357 111.703C879.797 114.158 879.226 116.602 878.677 119.057C878.578 119.482 878.413 119.631 877.962 119.61C876.984 119.567 875.995 119.599 874.951 119.599C875.237 118.334 875.512 117.144 875.786 115.964C876.687 112.043 877.589 108.132 878.512 104.221C878.6 103.849 878.83 103.477 879.094 103.19C879.753 102.488 880.434 101.861 881.148 101.16Z" fill="#666D80"/>
<path d="M903.583 121.586C902.989 122.606 902.066 123.031 900.956 123.105C898.341 123.276 896.308 121.681 895.869 119.163C895.572 117.451 895.847 115.783 896.231 114.114C896.583 112.626 896.912 111.149 897.253 109.661C897.429 108.854 897.242 108.227 896.759 107.993C896.286 107.77 895.638 108.003 895.089 108.609C894.287 109.502 893.935 110.618 893.66 111.734C893.056 114.189 892.484 116.665 891.924 119.131C891.847 119.481 891.704 119.588 891.341 119.588C890.342 119.566 889.331 119.577 888.254 119.577C888.287 119.354 888.309 119.184 888.342 119.014C889.21 115.23 890.078 111.457 890.946 107.674C891.21 106.515 891.243 105.357 890.935 104.209C890.913 104.145 890.935 104.071 890.935 104.007C892.649 103.189 894.254 103.901 894.847 105.782C895.144 105.527 895.418 105.283 895.704 105.038C896.528 104.347 897.506 104.114 898.572 104.22C899.847 104.358 900.759 105.314 901.011 106.675C901.209 107.706 901.055 108.715 900.846 109.725C900.44 111.723 899.979 113.71 899.671 115.709C899.539 116.548 899.649 117.441 899.803 118.291C900.121 119.938 901.198 120.969 902.879 121.405C903.11 121.479 903.318 121.522 903.583 121.586ZM875.475 104.22C875.189 105.474 874.926 106.643 874.651 107.812C873.783 111.574 872.904 115.336 872.058 119.099C871.97 119.503 871.794 119.598 871.409 119.598C870.31 119.577 869.223 119.588 868.058 119.588C868.102 119.258 868.146 118.982 868.168 118.812C867.486 119.046 866.794 119.396 866.069 119.513C864.311 119.8 863.014 118.812 862.696 117.101C862.454 115.804 862.739 114.571 863.025 113.328C863.695 110.448 864.355 107.568 865.014 104.677C865.047 104.539 865.091 104.4 865.146 104.241H868.717C868.036 107.196 867.366 110.129 866.706 113.062C866.585 113.615 866.475 114.167 866.421 114.731C866.377 115.156 866.497 115.634 866.948 115.74C867.3 115.825 867.838 115.772 868.102 115.549C868.574 115.166 869.069 114.667 869.278 114.125C869.805 112.701 870.223 111.234 870.607 109.767C871.058 108.056 871.409 106.314 871.827 104.602C871.86 104.454 872.069 104.241 872.211 104.23C873.255 104.209 874.31 104.22 875.475 104.22ZM885.188 119.566H881.595C882.771 114.454 883.947 109.364 885.133 104.252H888.727C887.55 109.353 886.375 114.444 885.188 119.566ZM820.501 105.283C820.094 105.888 820.215 106.452 820.512 107.026C819.951 106.802 819.698 106.218 819.83 105.548C819.962 104.868 820.622 104.337 821.347 104.316C822.05 104.294 822.72 104.773 822.918 105.421C823.127 106.144 822.852 106.802 822.105 107.196C822.523 106.579 822.643 105.984 822.27 105.325C821.687 105.74 821.105 105.814 820.501 105.283ZM817.105 113.158C816.589 113.03 815.841 112.956 815.193 112.658C813.94 112.084 813.863 110.66 814.984 109.874C815.259 109.672 815.556 109.502 815.83 109.289C816.325 108.907 816.611 108.407 816.654 107.791C816.665 107.61 816.698 107.44 816.72 107.27C816.764 106.962 816.841 106.59 817.237 106.675C817.446 106.728 817.698 107.089 817.709 107.323C817.742 108.428 818.281 109.183 819.237 109.725C819.896 110.097 820.368 110.607 820.226 111.404C820.083 112.223 819.489 112.69 818.698 112.892C818.259 113.02 817.786 113.052 817.105 113.158ZM816.49 111.925C816.512 111.351 815.995 110.66 815.633 110.692C815.479 110.703 815.27 110.915 815.237 111.075C815.16 111.457 815.742 112.191 816.094 112.169C816.259 112.159 816.402 111.978 816.49 111.925ZM819.226 111.128C819.237 110.745 818.973 110.575 818.621 110.745C818.259 110.926 817.863 111.585 817.973 111.893C818.028 112.021 818.248 112.191 818.347 112.169C818.852 112.063 819.05 111.659 819.193 111.234C819.215 111.192 819.226 111.16 819.226 111.128Z" fill="#666D80"/>
<path d="M817.205 113.211C817.348 113.488 817.414 113.594 817.447 113.7C817.677 114.412 817.897 114.603 818.644 114.391C819.589 114.115 820.501 113.689 821.424 113.317C821.578 113.254 821.688 113.116 821.842 113.073C822.018 113.02 822.205 113.041 822.391 113.02C822.38 113.211 822.435 113.466 822.336 113.594C821.919 114.125 821.479 114.657 820.996 115.135C819.897 116.198 818.644 117.037 816.985 116.846C816.348 116.772 815.678 116.623 815.117 116.346C813.854 115.73 812.963 114.678 812.128 113.594C812.029 113.466 812.084 113.222 812.062 113.031C812.26 113.052 812.48 113.02 812.656 113.094C813.59 113.488 814.48 113.998 815.436 114.306C816.524 114.646 816.59 114.561 817.051 113.562C817.084 113.477 817.117 113.392 817.205 113.211ZM818.568 115.826C818.633 115.847 818.699 115.879 818.765 115.9C818.93 115.741 819.117 115.592 819.26 115.401C819.37 115.252 819.414 115.06 819.48 114.89C819.381 114.859 819.26 114.784 819.194 114.816C818.974 114.912 818.71 115.018 818.59 115.188C818.491 115.347 818.568 115.613 818.568 115.826ZM815.656 115.911C815.711 115.868 815.766 115.826 815.82 115.794C815.952 115.092 815.831 114.859 815.26 114.827C815.172 114.827 814.974 115.039 814.985 115.05C815.205 115.337 815.436 115.624 815.656 115.911ZM816.49 111.926C816.402 111.979 816.26 112.15 816.095 112.16C815.754 112.181 815.172 111.458 815.238 111.065C815.271 110.916 815.479 110.703 815.633 110.682C815.985 110.661 816.501 111.362 816.49 111.926ZM819.227 111.129C819.216 111.16 819.216 111.203 819.205 111.235C819.051 111.66 818.864 112.075 818.359 112.171C818.249 112.192 818.029 112.022 817.985 111.894C817.864 111.597 818.26 110.937 818.634 110.746C818.974 110.575 819.249 110.746 819.227 111.129Z" fill="#666D80"/>
<path d="M818.567 115.826C818.567 115.613 818.49 115.347 818.589 115.198C818.71 115.018 818.974 114.922 819.193 114.826C819.259 114.794 819.38 114.869 819.479 114.901C819.413 115.071 819.369 115.262 819.259 115.411C819.127 115.592 818.93 115.741 818.765 115.911C818.699 115.868 818.633 115.847 818.567 115.826ZM815.655 115.911C815.424 115.624 815.194 115.347 814.985 115.049C814.974 115.039 815.172 114.815 815.26 114.826C815.831 114.858 815.952 115.081 815.82 115.794C815.765 115.826 815.71 115.868 815.655 115.911Z" fill="#666D80"/>
</g>
<defs>
<clipPath id="clip0_1915_7386">
<rect width="110.77" height="32" fill="white" transform="translate(46.6094 12)"/>
</clipPath>
</defs>
</svg>
