<svg width="70" height="70" viewBox="0 0 70 70" fill="none" xmlns="http://www.w3.org/2000/svg">
<g filter="url(#filter0_dd_1944_8786)">
<g clip-path="url(#clip0_1944_8786)">
<rect x="3" y="2" width="64" height="64" rx="12" fill="white"/>
<g clip-path="url(#clip1_1944_8786)">
<mask id="mask0_1944_8786" style="mask-type:luminance" maskUnits="userSpaceOnUse" x="3" y="2" width="64" height="64">
<path d="M67 2H3V66H67V2Z" fill="white"/>
</mask>
<g mask="url(#mask0_1944_8786)">
<path d="M35.2656 51.7778C36.6843 51.7778 43.2807 51.7778 43.2807 51.7778C46.583 51.7778 47.7803 51.4338 48.9874 50.7884C50.1945 50.1431 51.1421 49.1956 51.7874 47.9884C52.4327 46.7813 52.7767 45.584 52.7767 42.2818V34C52.7767 34 52.3972 34 51.7492 34" fill="white"/>
<path d="M35.2656 51.7778C36.6843 51.7778 43.2807 51.7778 43.2807 51.7778C46.583 51.7778 47.7803 51.4338 48.9874 50.7884C50.1945 50.1431 51.1421 49.1956 51.7874 47.9884C52.4327 46.7813 52.7767 45.584 52.7767 42.2818V34C52.7767 34 52.3972 34 51.7492 34" stroke="#D6EEFF" stroke-width="1.33333"/>
<path d="M35.7431 16.2227C35.2827 16.2227 35 16.2227 35 16.2227V34.0004H52.7778V25.7187C52.7778 22.4164 52.4338 21.2191 51.7884 20.012C51.1431 18.8049 50.1956 17.8573 48.9884 17.212C48.0444 16.7071 47.1058 16.3862 45.1609 16.2707" fill="white"/>
<path d="M35.7431 16.2227C35.2827 16.2227 35 16.2227 35 16.2227V34.0004H52.7778V25.7187C52.7778 22.4164 52.4338 21.2191 51.7884 20.012C51.1431 18.8049 50.1956 17.8573 48.9884 17.212C48.0444 16.7071 47.1058 16.3862 45.1609 16.2707" stroke="#5BADFF" stroke-width="1.33333"/>
<path d="M34.9965 16.2227H26.7148C23.4125 16.2227 22.2152 16.5667 21.0081 17.212C19.801 17.8573 18.8534 18.8049 18.2081 20.012C17.5628 21.2191 17.2188 22.4164 17.2188 25.7187V42.2822C17.2188 45.5844 17.5628 46.7818 18.2081 47.9889C18.8534 49.196 19.801 50.1435 21.0081 50.7889C22.2152 51.4342 23.4125 51.7782 26.7148 51.7782H34.9965C34.9965 51.7782 34.9965 29.38 34.9965 20.1382" fill="white" fill-opacity="0.24991"/>
<path d="M34.9965 16.2227H26.7148C23.4125 16.2227 22.2152 16.5667 21.0081 17.212C19.801 17.8573 18.8534 18.8049 18.2081 20.012C17.5628 21.2191 17.2188 22.4164 17.2188 25.7187V42.2822C17.2188 45.5844 17.5628 46.7818 18.2081 47.9889C18.8534 49.196 19.801 50.1435 21.0081 50.7889C22.2152 51.4342 23.4125 51.7782 26.7148 51.7782H34.9965C34.9965 51.7782 34.9965 29.38 34.9965 20.1382" stroke="#0F77FF" stroke-width="1.33333"/>
</g>
</g>
</g>
</g>
<defs>
<filter id="filter0_dd_1944_8786" x="0" y="0" width="70" height="70" filterUnits="userSpaceOnUse" color-interpolation-filters="sRGB">
<feFlood flood-opacity="0" result="BackgroundImageFix"/>
<feColorMatrix in="SourceAlpha" type="matrix" values="0 0 0 0 0 0 0 0 0 0 0 0 0 0 0 0 0 0 127 0" result="hardAlpha"/>
<feMorphology radius="1" operator="dilate" in="SourceAlpha" result="effect1_dropShadow_1944_8786"/>
<feOffset dy="1"/>
<feGaussianBlur stdDeviation="1"/>
<feComposite in2="hardAlpha" operator="out"/>
<feColorMatrix type="matrix" values="0 0 0 0 0 0 0 0 0 0 0 0 0 0 0 0 0 0 0.05 0"/>
<feBlend mode="normal" in2="BackgroundImageFix" result="effect1_dropShadow_1944_8786"/>
<feColorMatrix in="SourceAlpha" type="matrix" values="0 0 0 0 0 0 0 0 0 0 0 0 0 0 0 0 0 0 127 0" result="hardAlpha"/>
<feMorphology radius="1" operator="dilate" in="SourceAlpha" result="effect2_dropShadow_1944_8786"/>
<feOffset/>
<feComposite in2="hardAlpha" operator="out"/>
<feColorMatrix type="matrix" values="0 0 0 0 0.419608 0 0 0 0 0.564706 0 0 0 0 0.752941 0 0 0 0.15 0"/>
<feBlend mode="normal" in2="effect1_dropShadow_1944_8786" result="effect2_dropShadow_1944_8786"/>
<feBlend mode="normal" in="SourceGraphic" in2="effect2_dropShadow_1944_8786" result="shape"/>
</filter>
<clipPath id="clip0_1944_8786">
<rect x="3" y="2" width="64" height="64" rx="12" fill="white"/>
</clipPath>
<clipPath id="clip1_1944_8786">
<rect width="64" height="64" fill="white" transform="translate(3 2)"/>
</clipPath>
</defs>
</svg>
