<svg width="24" height="24" viewBox="0 0 24 24" fill="none" xmlns="http://www.w3.org/2000/svg">
<g clip-path="url(#clip0_1915_11340)">
<path d="M18 0H6C2.68629 0 0 2.68629 0 6V18C0 21.3137 2.68629 24 6 24H18C21.3137 24 24 21.3137 24 18V6C24 2.68629 21.3137 0 18 0Z" fill="white" fill-opacity="0.1"/>
<path d="M6 0.5H18C21.0376 0.5 23.5 2.96243 23.5 6V18C23.5 21.0376 21.0376 23.5 18 23.5H6C2.96243 23.5 0.5 21.0376 0.5 18V6C0.5 2.96243 2.96243 0.5 6 0.5Z" stroke="#88A3C6" stroke-opacity="0.18"/>
<path d="M10.5 10H9V12H10.5V18H13V12H14.821L15 10H13V9.166C13 8.689 13.096 8.5 13.557 8.5H15V6H13.096C11.298 6 10.5 6.792 10.5 8.307V10Z" fill="white"/>
</g>
<defs>
<clipPath id="clip0_1915_11340">
<rect width="24" height="24" fill="white"/>
</clipPath>
</defs>
</svg>
