<svg width="24" height="24" viewBox="0 0 24 24" fill="none" xmlns="http://www.w3.org/2000/svg">
<g clip-path="url(#clip0_1915_8999)">
<g clip-path="url(#clip1_1915_8999)">
<g clip-path="url(#clip2_1915_8999)">
<g filter="url(#filter0_di_1915_8999)">
<path d="M18.8538 0.857422H5.13951C3.24596 0.857422 1.71094 2.39245 1.71094 4.28599V18.0003C1.71094 19.8938 3.24596 21.4289 5.13951 21.4289H18.8538C20.7473 21.4289 22.2824 19.8938 22.2824 18.0003V4.28599C22.2824 2.39245 20.7473 0.857422 18.8538 0.857422Z" fill="white"/>
<path fill-rule="evenodd" clip-rule="evenodd" d="M10.8695 10.5433C10.5961 10.7181 10.5078 10.9058 10.5078 11.0438C10.5078 11.1827 10.5961 11.3695 10.8695 11.5453C11.137 11.7167 11.5347 11.8375 11.9967 11.8375C12.4578 11.8375 12.8555 11.7175 13.123 11.5453C13.3964 11.3704 13.4847 11.1827 13.4847 11.0438C13.4847 10.9058 13.3964 10.7181 13.123 10.5433C12.8555 10.3718 12.4578 10.251 11.9967 10.251C11.5338 10.251 11.137 10.371 10.8695 10.5424V10.5433ZM13.4838 12.369C13.069 12.6004 12.5478 12.7307 11.9958 12.7307C11.4447 12.7307 10.9235 12.6013 10.5078 12.369V14.7647C10.5078 14.9027 10.5961 15.0904 10.8695 15.2653C11.137 15.4367 11.5347 15.5584 11.9967 15.5584C12.4578 15.5584 12.8555 15.4375 13.123 15.2653C13.3964 15.0904 13.4847 14.9027 13.4847 14.7647V12.369H13.4838Z" fill="url(#paint0_linear_1915_8999)" fill-opacity="0.24"/>
<path fill-rule="evenodd" clip-rule="evenodd" d="M10.8712 10.5429C10.5978 10.7177 10.5095 10.9054 10.5095 11.0443C10.5095 11.1823 10.5978 11.37 10.8712 11.5449C11.1386 11.7163 11.5363 11.8371 11.9983 11.8371C12.4595 11.8371 12.8572 11.7171 13.1246 11.5457C13.398 11.37 13.4863 11.1823 13.4863 11.0443C13.4863 10.9054 13.398 10.7186 13.1246 10.5429C12.8572 10.3714 12.4595 10.2506 11.9983 10.2506C11.5355 10.2506 11.1386 10.3706 10.8712 10.5429ZM13.4855 12.3686C13.0706 12.6 12.5495 12.7303 11.9983 12.7303C11.4463 12.7303 10.9252 12.6009 10.5095 12.3686V14.7643C10.5095 14.9023 10.5978 15.09 10.8712 15.2649C11.1386 15.4363 11.5363 15.558 11.9983 15.558C12.4595 15.558 12.8572 15.4371 13.1246 15.2649C13.398 15.09 13.4863 14.9023 13.4863 14.7643V12.3686H13.4855ZM14.3786 11.0443C14.3786 10.4974 14.034 10.0654 13.6072 9.79114C13.1743 9.51428 12.6043 9.35742 11.9983 9.35742C11.3915 9.35742 10.8215 9.51428 10.3895 9.79114C9.96176 10.0654 9.61719 10.4974 9.61719 11.0443V17.244C9.61719 17.3623 9.66419 17.4758 9.74786 17.5595C9.83153 17.6431 9.94501 17.6901 10.0633 17.6901C10.1817 17.6901 10.2951 17.6431 10.3788 17.5595C10.4625 17.4758 10.5095 17.3623 10.5095 17.244V16.0894C10.9252 16.3209 11.4463 16.4503 11.9983 16.4503C12.5495 16.4503 13.0715 16.3217 13.4863 16.0894V17.244C13.4863 17.3623 13.5333 17.4758 13.617 17.5595C13.7007 17.6431 13.8141 17.6901 13.9325 17.6901C14.0508 17.6901 14.1643 17.6431 14.2479 17.5595C14.3316 17.4758 14.3786 17.3623 14.3786 17.244V11.0443Z" fill="#0F77FF"/>
<path opacity="0.5" d="M15.9501 7.10607C15.9699 7.06656 16.0003 7.03334 16.0379 7.01012C16.0756 6.9869 16.1189 6.97461 16.1631 6.97461C16.2073 6.97461 16.2506 6.9869 16.2882 7.01012C16.3259 7.03334 16.3563 7.06656 16.3761 7.10607C16.8244 8.00264 16.9212 8.10036 17.8195 8.54864C17.8591 8.56832 17.8923 8.59864 17.9156 8.63619C17.9389 8.67375 17.9512 8.71704 17.9512 8.76122C17.9512 8.80539 17.9389 8.84869 17.9156 8.88624C17.8923 8.92379 17.8591 8.95411 17.8195 8.97379C16.9212 9.42293 16.8252 9.51893 16.3761 10.4164C16.3563 10.4559 16.3259 10.4891 16.2882 10.5123C16.2506 10.5355 16.2073 10.5478 16.1631 10.5478C16.1189 10.5478 16.0756 10.5355 16.0379 10.5123C16.0003 10.4891 15.9699 10.4559 15.9501 10.4164C15.501 9.51893 15.4041 9.42207 14.5067 8.97379C14.4671 8.95411 14.4338 8.92379 14.4106 8.88624C14.3873 8.84869 14.375 8.80539 14.375 8.76122C14.375 8.71704 14.3873 8.67375 14.4106 8.63619C14.4338 8.59864 14.4671 8.56832 14.5067 8.54864C15.4041 8.0995 15.501 8.00264 15.9501 7.10522V7.10607Z" fill="#0F77FF"/>
<path opacity="0.3" d="M7.61416 7.10607C7.63397 7.06656 7.66439 7.03334 7.70201 7.01012C7.73962 6.9869 7.78295 6.97461 7.82716 6.97461C7.87136 6.97461 7.91469 6.9869 7.95231 7.01012C7.98992 7.03334 8.02034 7.06656 8.04016 7.10607C8.4893 8.00264 8.58616 8.10036 9.48359 8.54864C9.52313 8.56832 9.55641 8.59864 9.57967 8.63619C9.60293 8.67375 9.61525 8.71704 9.61525 8.76122C9.61525 8.80539 9.60293 8.84869 9.57967 8.88624C9.55641 8.92379 9.52313 8.95411 9.48359 8.97379C8.58616 9.42293 8.4893 9.51893 8.04016 10.4164C8.02034 10.4559 7.98992 10.4891 7.95231 10.5123C7.91469 10.5355 7.87136 10.5478 7.82716 10.5478C7.78295 10.5478 7.73962 10.5355 7.70201 10.5123C7.66439 10.4891 7.63397 10.4559 7.61416 10.4164C7.16501 9.51893 7.06816 9.42207 6.17073 8.97379C6.13118 8.95411 6.09791 8.92379 6.07465 8.88624C6.05139 8.84869 6.03906 8.80539 6.03906 8.76122C6.03906 8.71704 6.05139 8.67375 6.07465 8.63619C6.09791 8.59864 6.13118 8.56832 6.17073 8.54864C7.06816 8.0995 7.16501 8.00264 7.61416 7.10522V7.10607Z" fill="#0F77FF"/>
<path d="M11.7791 4.72729C11.799 4.688 11.8294 4.655 11.8669 4.63194C11.9044 4.60889 11.9476 4.59668 11.9916 4.59668C12.0357 4.59668 12.0789 4.60889 12.1164 4.63194C12.1539 4.655 12.1843 4.688 12.2042 4.72729C12.6534 5.62472 12.7502 5.72158 13.6476 6.16986C13.6872 6.18954 13.7205 6.21986 13.7437 6.25741C13.767 6.29497 13.7793 6.33826 13.7793 6.38244C13.7793 6.42661 13.767 6.46991 13.7437 6.50746C13.7205 6.54501 13.6872 6.57533 13.6476 6.59501C12.7502 7.04415 12.6534 7.14101 12.2042 8.03844C12.1844 8.07795 12.154 8.11117 12.1164 8.13439C12.0788 8.1576 12.0354 8.1699 11.9912 8.1699C11.947 8.1699 11.9037 8.1576 11.8661 8.13439C11.8285 8.11117 11.798 8.07795 11.7782 8.03844C11.3299 7.14101 11.2331 7.04415 10.3348 6.59501C10.2952 6.57533 10.262 6.54501 10.2387 6.50746C10.2154 6.46991 10.2031 6.42661 10.2031 6.38244C10.2031 6.33826 10.2154 6.29497 10.2387 6.25741C10.262 6.21986 10.2952 6.18954 10.3348 6.16986C11.2331 5.72158 11.3291 5.62472 11.7782 4.72729H11.7791Z" fill="#0F77FF"/>
</g>
</g>
</g>
</g>
<defs>
<filter id="filter0_di_1915_8999" x="-0.00334823" y="0.000279009" width="23.9989" height="23.9999" filterUnits="userSpaceOnUse" color-interpolation-filters="sRGB">
<feFlood flood-opacity="0" result="BackgroundImageFix"/>
<feColorMatrix in="SourceAlpha" type="matrix" values="0 0 0 0 0 0 0 0 0 0 0 0 0 0 0 0 0 0 127 0" result="hardAlpha"/>
<feOffset dy="0.857143"/>
<feGaussianBlur stdDeviation="0.857143"/>
<feComposite in2="hardAlpha" operator="out"/>
<feColorMatrix type="matrix" values="0 0 0 0 0.0696 0 0 0 0 0.215657 0 0 0 0 0.4104 0 0 0 0.12 0"/>
<feBlend mode="normal" in2="BackgroundImageFix" result="effect1_dropShadow_1915_8999"/>
<feBlend mode="normal" in="SourceGraphic" in2="effect1_dropShadow_1915_8999" result="shape"/>
<feColorMatrix in="SourceAlpha" type="matrix" values="0 0 0 0 0 0 0 0 0 0 0 0 0 0 0 0 0 0 127 0" result="hardAlpha"/>
<feOffset/>
<feGaussianBlur stdDeviation="1.71429"/>
<feComposite in2="hardAlpha" operator="arithmetic" k2="-1" k3="1"/>
<feColorMatrix type="matrix" values="0 0 0 0 0.0696 0 0 0 0 0.215657 0 0 0 0 0.4104 0 0 0 0.08 0"/>
<feBlend mode="normal" in2="shape" result="effect2_innerShadow_1915_8999"/>
</filter>
<linearGradient id="paint0_linear_1915_8999" x1="11.9967" y1="10.251" x2="11.9967" y2="15.5584" gradientUnits="userSpaceOnUse">
<stop stop-color="#0F77FF"/>
<stop offset="1" stop-color="#0F77FF" stop-opacity="0"/>
</linearGradient>
<clipPath id="clip0_1915_8999">
<rect width="24" height="24" fill="white"/>
</clipPath>
<clipPath id="clip1_1915_8999">
<rect width="24" height="24" fill="white"/>
</clipPath>
<clipPath id="clip2_1915_8999">
<rect width="24" height="24" fill="white"/>
</clipPath>
</defs>
</svg>
