<svg width="21" height="20" viewBox="0 0 21 20" fill="none" xmlns="http://www.w3.org/2000/svg">
<path d="M14.8566 16.0417H17.02C17.9891 16.0417 18.7752 15.2074 18.5098 14.2754C17.8989 12.1308 16.4557 10.625 14.2316 10.625C13.8599 10.625 13.51 10.6671 13.1822 10.7471M9.43993 5.83333C9.43993 7.3291 8.22737 8.54167 6.7316 8.54167C5.23583 8.54167 4.02327 7.3291 4.02327 5.83333C4.02327 4.33756 5.23583 3.125 6.7316 3.125C8.22737 3.125 9.43993 4.33756 9.43993 5.83333ZM16.5232 6.25C16.5232 7.51565 15.4972 8.54167 14.2316 8.54167C12.9659 8.54167 11.9399 7.51565 11.9399 6.25C11.9399 4.98435 12.9659 3.95833 14.2316 3.95833C15.4972 3.95833 16.5232 4.98435 16.5232 6.25ZM1.79932 15.105C2.44817 12.4889 4.11398 10.625 6.7316 10.625C9.34922 10.625 11.015 12.4889 11.6638 15.105C11.8969 16.0449 11.1153 16.875 10.1469 16.875H3.31625C2.3479 16.875 1.56622 16.0449 1.79932 15.105Z" stroke="#0E0B29" stroke-width="1.5" stroke-linecap="round" stroke-linejoin="round"/>
</svg>
