<svg width="24" height="24" viewBox="0 0 24 24" fill="none" xmlns="http://www.w3.org/2000/svg">
<g clip-path="url(#clip0_1915_11343)">
<path d="M18 0H6C2.68629 0 0 2.68629 0 6V18C0 21.3137 2.68629 24 6 24H18C21.3137 24 24 21.3137 24 18V6C24 2.68629 21.3137 0 18 0Z" fill="white" fill-opacity="0.1"/>
<path d="M6 0.5H18C21.0376 0.5 23.5 2.96243 23.5 6V18C23.5 21.0376 21.0376 23.5 18 23.5H6C2.96243 23.5 0.5 21.0376 0.5 18V6C0.5 2.96243 2.96243 0.5 6 0.5Z" stroke="#88A3C6" stroke-opacity="0.18"/>
<path d="M8.49 7.75C8.49 8.44 7.935 9 7.25 9C6.565 9 6.01 8.44 6.01 7.75C6.01 7.06 6.565 6.5 7.25 6.5C7.935 6.5 8.49 7.06 8.49 7.75ZM8.5 10H6V18H8.5V10ZM12.491 10H10.007V18H12.492V13.8C12.492 11.465 15.506 11.274 15.506 13.8V18H18V12.934C18 8.994 13.539 9.138 12.491 11.078V10Z" fill="white"/>
</g>
<defs>
<clipPath id="clip0_1915_11343">
<rect width="24" height="24" fill="white"/>
</clipPath>
</defs>
</svg>
