<svg width="161" height="56" viewBox="0 0 161 56" fill="none" xmlns="http://www.w3.org/2000/svg">
<mask id="mask0_1915_7437" style="mask-type:luminance" maskUnits="userSpaceOnUse" x="11" y="11" width="140" height="34">
<path d="M150.339 11.9844H11.1484V44.0161H150.339V11.9844Z" fill="white"/>
</mask>
<g mask="url(#mask0_1915_7437)">
<path d="M12.5449 12.0244H12.5577C13.0592 12.0276 13.5426 12.2978 13.7934 12.7718C16.2818 17.4605 17.5844 22.6923 17.5866 28.0062L17.5877 28.0361C17.5855 33.2679 16.3211 38.4997 13.7934 43.2703C13.6736 43.4957 13.4952 43.6841 13.2772 43.8155C13.0592 43.947 12.8098 44.0166 12.5555 44.0167H12.546C12.326 44.0167 12.1029 43.9633 11.8957 43.8534C11.733 43.7678 11.5887 43.6508 11.4711 43.5092C11.3535 43.3675 11.2651 43.2036 11.2107 43.0274C11.1564 42.8511 11.1373 42.6658 11.1546 42.4821C11.1719 42.2985 11.2251 42.12 11.3113 41.9571C13.5879 37.6679 14.7787 32.8817 14.7787 28.0206C14.7787 23.1595 13.5879 18.3732 11.3113 14.0841C11.2251 13.9211 11.1719 13.7427 11.1546 13.559C11.1373 13.3753 11.1564 13.1899 11.2107 13.0137C11.2651 12.8374 11.3535 12.6737 11.4711 12.532C11.5887 12.3902 11.733 12.2732 11.8957 12.1878C12.0955 12.0816 12.3189 12.0256 12.5449 12.0244ZM19.9348 15.4988C20.2781 15.3561 20.6637 15.3556 21.0075 15.4974C21.3512 15.6392 21.6252 15.9118 21.7697 16.2558C23.3191 19.9812 24.1147 23.9792 24.1105 28.0168V28.0254C24.1105 32.0806 23.3231 36.0365 21.7697 39.7842C21.4722 40.4996 20.6509 40.8392 19.9348 40.5423C19.7649 40.4725 19.6103 40.3697 19.4801 40.2397C19.3499 40.1098 19.2465 39.9552 19.1759 39.7849C19.1053 39.6146 19.0689 39.4321 19.0687 39.2476C19.0686 39.0631 19.1047 38.8805 19.1751 38.7102C20.5813 35.329 21.3044 31.7006 21.3022 28.0361V28.0211V28.0062C21.3045 24.3413 20.5814 20.7125 19.1751 17.331C18.8776 16.6156 19.2176 15.7946 19.9348 15.4988ZM27.84 19.3576C28.2012 19.2694 28.5825 19.3289 28.9 19.5231C29.2176 19.7173 29.4456 20.0304 29.5336 20.3932C30.1318 22.8843 30.4304 25.4446 30.4314 28.0062V28.0361C30.4314 30.5964 30.1318 33.1569 29.5325 35.6468C29.444 36.0092 29.2161 36.3217 28.8989 36.5156C28.5817 36.7098 28.2009 36.7698 27.84 36.6825C27.6612 36.6404 27.4925 36.5631 27.3435 36.4552C27.1944 36.3473 27.0681 36.2111 26.9716 36.054C26.8752 35.897 26.8105 35.7223 26.7815 35.5401C26.7523 35.3579 26.7592 35.1718 26.8018 34.9922C27.3489 32.709 27.6247 30.3686 27.6232 28.0201C27.6232 25.6753 27.3501 23.3295 26.8018 21.0499C26.7589 20.8703 26.7517 20.6839 26.7808 20.5015C26.8097 20.319 26.8742 20.1441 26.9707 19.9869C27.0673 19.8296 27.1936 19.693 27.3428 19.585C27.4919 19.477 27.6609 19.3997 27.84 19.3576ZM34.5327 23.4523C34.718 23.4165 34.9085 23.4186 35.093 23.4585C35.2773 23.4985 35.4519 23.5753 35.6059 23.6846C35.7601 23.7938 35.8908 23.9332 35.9901 24.0944C36.0894 24.2555 36.1553 24.4351 36.184 24.6225C36.3518 25.7458 36.4315 26.8754 36.4229 28.0062V28.0361C36.4314 29.1681 36.3515 30.2991 36.184 31.4186C36.1552 31.6059 36.0892 31.7854 35.9899 31.9465C35.8904 32.1076 35.7599 32.247 35.6057 32.3562C35.4516 32.4654 35.2772 32.5423 35.0928 32.5823C34.9085 32.6222 34.718 32.6245 34.5327 32.5888C33.789 32.449 33.3002 31.724 33.4108 30.9744C33.5553 29.9986 33.6232 29.0173 33.6137 28.0361V28.0211V28.0062C33.6224 27.0225 33.5546 26.0396 33.4108 25.0667C33.3023 24.3353 33.8059 23.5889 34.5327 23.4523ZM39.1792 28.0361C39.1792 27.1531 39.8954 26.4377 40.7793 26.4377C41.6624 26.4377 42.3784 27.1531 42.3784 28.0361C42.3784 28.918 41.6624 29.6334 40.7793 29.6334C39.8954 29.6334 39.1792 28.918 39.1792 28.0361Z" fill="#666D80"/>
<path fill-rule="evenodd" clip-rule="evenodd" d="M53.7191 19.7306V26.5681H61.7827C61.8672 26.8121 61.8946 27.0275 61.8946 27.2715C61.8946 27.4869 61.8661 27.7035 61.7838 27.9464H53.7191V35.6763C53.4426 35.7304 53.1946 35.7846 52.9455 35.7846C52.6975 35.7846 52.4495 35.7304 52.1719 35.6763V18.3257H62.8054C62.8604 18.5686 62.8888 18.8116 62.8888 19.0546C62.8888 19.2711 62.8604 19.514 62.8054 19.7306H53.7191ZM72.886 24.3525C72.1958 24.1626 71.4506 24.0554 70.4553 24.0554C69.0748 24.0554 67.8316 24.4332 67.0589 24.9202V35.6763C66.5495 35.7833 66.0222 35.7833 65.5127 35.6763V24.2443C66.5617 23.4071 68.4119 22.623 70.5936 22.623C71.726 22.623 72.5272 22.7577 73.2733 23.0283C73.3008 23.4878 73.1625 24.0013 72.886 24.3525ZM79.9015 34.6492C81.5036 34.6492 82.8019 34.3521 83.6853 34.0009V30.2171C82.691 29.7036 81.2821 29.2981 79.7359 29.2981C77.4435 29.2981 76.0904 30.2171 76.0904 31.8119C76.0904 33.4863 77.361 34.6503 79.9005 34.6503L79.9015 34.6492ZM85.1767 27.4063V34.8391C83.8236 35.568 81.6409 36.001 79.8741 36.001C76.2286 36.001 74.5156 34.2715 74.5156 31.9201C74.5156 29.3248 76.7806 27.9464 79.7359 27.9464C81.3928 27.9464 82.7185 28.3241 83.6853 28.7836V27.4604C83.6853 25.1091 82.138 24.0279 79.7907 24.0279C78.0788 24.0279 76.8354 24.5956 75.8961 25.2714C75.6961 25.1739 75.5223 25.0327 75.3881 24.859C75.2541 24.6854 75.1636 24.4841 75.1235 24.2708C75.759 23.6766 77.4435 22.623 79.8467 22.623C82.8019 22.623 85.1767 23.9737 85.1767 27.4063ZM108.037 27.5951V35.6763C107.788 35.7304 107.54 35.7579 107.264 35.7579C107.004 35.759 106.744 35.7316 106.49 35.6763V28.1363C106.546 25.9198 105.551 24.0279 102.624 24.0279C100.967 24.0279 99.6414 24.812 98.757 25.6227C98.9786 26.2444 99.0884 26.8927 99.0884 27.5951V35.6763C98.8678 35.7304 98.5924 35.7579 98.3433 35.7579C98.0668 35.7579 97.7903 35.7304 97.5696 35.6763V28.1363C97.5696 25.9198 96.6303 24.0279 93.731 24.0279C92.267 24.0279 90.913 24.5956 90.0855 25.1091V35.6763C89.5757 35.7834 89.0481 35.7834 88.5382 35.6763V24.4607C89.6707 23.5419 91.6591 22.623 93.979 22.623C95.9125 22.623 97.2931 23.352 98.1502 24.4873C99.2826 23.4602 100.994 22.623 102.9 22.623C106.298 22.623 108.092 24.8661 108.037 27.5951ZM120.982 28.3252C120.982 25.6502 119.353 23.9737 116.951 23.9737C114.382 23.9737 112.67 25.8656 112.421 28.3252H120.982ZM122.53 29.5954H112.366C112.448 32.6225 114.271 34.6226 117.171 34.6226C119.353 34.6226 120.485 33.812 121.259 33.2168C121.645 33.4057 121.977 33.8385 122.088 34.2439C121.038 35.1087 119.491 35.9999 117.171 35.9999C113.442 35.9999 110.791 33.5679 110.791 29.3523C110.791 25.2714 113.581 22.623 116.951 22.623C120.128 22.623 122.585 24.7844 122.612 28.5416C122.612 28.947 122.585 29.1359 122.53 29.5954ZM130.828 35.6763V22.9753C131.077 22.8936 131.352 22.8669 131.601 22.8669C131.849 22.8669 132.126 22.8936 132.346 22.9753V35.6763C132.126 35.7304 131.85 35.7579 131.601 35.7579C131.341 35.7575 131.082 35.7301 130.828 35.6763ZM130.358 19.1905C130.358 18.5411 130.911 18.001 131.601 18.001C132.264 18.001 132.789 18.5421 132.789 19.1905C132.789 19.8663 132.264 20.3788 131.601 20.3788C131.274 20.3802 130.959 20.2559 130.726 20.0331C130.493 19.8103 130.36 19.5073 130.358 19.1905ZM125.569 34.3562C125.569 33.7078 126.121 33.1677 126.812 33.1677C127.474 33.1677 128 33.7088 128 34.3562C128 35.032 127.474 35.5457 126.812 35.5457C126.484 35.5467 126.169 35.4221 125.937 35.1992C125.704 34.9762 125.572 34.6731 125.569 34.3562ZM146.624 29.2971C146.624 26.3251 144.692 24.0279 141.626 24.0279C138.56 24.0279 136.627 26.3251 136.627 29.2971C136.627 32.3244 138.56 34.5675 141.626 34.5675C144.692 34.5675 146.624 32.3244 146.624 29.2971ZM135.053 29.2971C135.053 25.4868 137.897 22.622 141.653 22.622C145.465 22.622 148.172 25.4868 148.172 29.2971C148.172 33.1086 145.326 35.9734 141.571 35.9734C137.759 35.9734 135.053 33.1626 135.053 29.2971Z" fill="#666D80"/>
</g>
</svg>
