<svg width="161" height="56" viewBox="0 0 161 56" fill="none" xmlns="http://www.w3.org/2000/svg">
<path d="M19.7048 34.5379L13.1823 28.0757C12.083 26.9826 10.2753 26.9826 9.17603 28.0757C8.07674 29.169 8.07674 30.9667 9.17603 32.06L17.7016 40.5142C18.801 41.6075 20.6087 41.6075 21.708 40.5142L29.7205 32.5459L25.6899 28.5616L19.7048 34.5379Z" fill="#666D80"/>
<path d="M44.2051 22.1022L31.6976 34.5407L19.1901 22.1022C18.0908 21.0089 16.2831 21.0089 15.1838 22.1022C14.0846 23.1955 14.0846 24.9932 15.1838 26.0863L29.6944 40.517C30.7937 41.6103 32.6014 41.6103 33.7008 40.517L48.2114 26.0863C49.3107 24.9932 49.3107 23.1955 48.2114 22.1022C47.1121 21.0089 45.3044 21.0089 44.2051 22.1022Z" fill="#666D80"/>
<path d="M54.2192 32.0604L45.718 40.5148C44.6187 41.6081 42.811 41.6081 41.7117 40.5148L21.1917 20.1078C20.0924 19.0146 20.0924 17.2169 21.1917 16.1236C22.291 15.0304 24.0987 15.0304 25.1979 16.1236L43.7148 34.5385L50.2128 28.0763C51.3121 26.983 53.1198 26.983 54.2192 28.0763C55.3185 29.1694 55.3185 30.9673 54.2192 32.0604Z" fill="#666D80"/>
<path d="M42.2013 16.1236C41.102 15.0304 39.2943 15.0304 38.195 16.1236L25.6875 28.5622L29.6938 32.5463L42.2013 20.1078C43.3006 19.0146 43.3006 17.2169 42.2013 16.1236Z" fill="#666D80"/>
<path d="M69.2227 17.117H65.7812V36.7192H78.4322V33.7719H69.2227V17.117ZM85.8968 23.0117C88.0053 23.0117 89.411 23.8304 90.1865 24.8597L90.3562 23.2923H93.3371V36.7192H90.3562L90.1865 35.152C89.411 36.1578 88.0053 37 85.8968 37C82.116 37 79.5471 34.0526 79.5471 30.0058C79.5471 25.9356 82.116 23.0117 85.8968 23.0117ZM86.6238 25.8421C84.467 25.8421 82.9159 27.4795 82.9159 30.0058C82.9159 32.5322 84.467 34.1695 86.6238 34.1695C88.2718 34.1695 89.2656 33.3275 90.0169 32.1812V27.8538C89.2656 26.6842 88.2718 25.8421 86.6238 25.8421ZM101.674 18.7777H98.3539V23.2923H95.7364V26.0058H98.3539V31.9707C98.3539 35.2222 100.365 36.9766 103.54 36.9766C104.922 36.9766 105.94 36.6022 106.642 36.1812L105.77 33.6783C105.358 33.9123 104.752 34.0994 103.855 34.0994C102.547 34.0994 101.674 33.3041 101.674 31.9473V26.0058H105.867V23.2923H101.674V18.7777ZM113.089 18.7777H109.769V23.2923H107.151V26.0058H109.769V31.9707C109.769 35.2222 111.78 36.9766 114.955 36.9766C116.337 36.9766 117.355 36.6022 118.058 36.1812L117.185 33.6783C116.773 33.9123 116.167 34.0994 115.27 34.0994C113.962 34.0994 113.089 33.3041 113.089 31.9473V26.0058H117.282V23.2923H113.089V18.7777ZM123.607 23.2689H120.287V36.6958H123.607V23.2689ZM121.959 17C120.796 17 119.924 17.8187 119.924 18.9649C119.924 20.111 120.796 20.9299 121.959 20.9299C123.147 20.9299 124.019 20.111 124.019 18.9649C124.019 17.8187 123.147 17 121.959 17ZM133.617 23.0117C129.327 23.0117 126.491 25.9356 126.491 30.0058C126.491 34.0292 129.376 37 133.641 37C136.161 37 138.052 35.9005 139.312 34.0526L136.937 32.2748C136.283 33.3509 135.192 34.2163 133.689 34.2163C131.242 34.2163 129.884 32.3684 129.884 30.0292C129.884 27.6667 131.193 25.8421 133.665 25.8421C135.216 25.8421 136.234 26.6842 136.864 27.7602L139.264 26.0058C138.003 24.111 136.161 23.0117 133.617 23.0117ZM147.407 23.0117C151.697 23.0117 153.781 26.0994 153.781 29.8655V30.9883H143.941C144.014 33.1169 145.347 34.2865 147.673 34.2865C149.297 34.2865 150.485 33.5847 151.114 32.7426L153.417 34.5438C152.035 36.1344 150.218 36.9766 147.649 36.9766C143.335 36.9766 140.572 34.0526 140.572 30.0292C140.597 25.959 143.408 23.0117 147.407 23.0117ZM147.358 25.5613C145.395 25.5613 144.062 26.8245 143.965 28.6724H150.533C150.46 26.8479 149.346 25.5613 147.358 25.5613Z" fill="#666D80"/>
</svg>
