<svg width="64" height="64" viewBox="0 0 64 64" fill="none" xmlns="http://www.w3.org/2000/svg">
<rect width="64" height="64" rx="12" fill="white"/>
<g clip-path="url(#clip0_1915_11238)">
<mask id="mask0_1915_11238" style="mask-type:luminance" maskUnits="userSpaceOnUse" x="0" y="0" width="64" height="64">
<path d="M64 0H0V64H64V0Z" fill="white"/>
</mask>
<g mask="url(#mask0_1915_11238)">
<path d="M32.2656 49.7778C33.6843 49.7778 40.2807 49.7778 40.2807 49.7778C43.583 49.7778 44.7803 49.4338 45.9874 48.7884C47.1945 48.1431 48.1421 47.1956 48.7874 45.9884C49.4327 44.7813 49.7767 43.584 49.7767 40.2818V32C49.7767 32 49.3972 32 48.7492 32" fill="white"/>
<path d="M32.2656 49.7778C33.6843 49.7778 40.2807 49.7778 40.2807 49.7778C43.583 49.7778 44.7803 49.4338 45.9874 48.7884C47.1945 48.1431 48.1421 47.1956 48.7874 45.9884C49.4327 44.7813 49.7767 43.584 49.7767 40.2818V32C49.7767 32 49.3972 32 48.7492 32" stroke="#D6EEFF" stroke-width="1.33333"/>
<path d="M32.7431 14.2227C32.2827 14.2227 32 14.2227 32 14.2227V32.0004H49.7778V23.7187C49.7778 20.4164 49.4338 19.2191 48.7884 18.012C48.1431 16.8049 47.1956 15.8573 45.9884 15.212C45.0444 14.7071 44.1058 14.3862 42.1609 14.2707" fill="white"/>
<path d="M32.7431 14.2227C32.2827 14.2227 32 14.2227 32 14.2227V32.0004H49.7778V23.7187C49.7778 20.4164 49.4338 19.2191 48.7884 18.012C48.1431 16.8049 47.1956 15.8573 45.9884 15.212C45.0444 14.7071 44.1058 14.3862 42.1609 14.2707" stroke="#5BADFF" stroke-width="1.33333"/>
<path d="M31.9965 14.2227H23.7148C20.4125 14.2227 19.2152 14.5667 18.0081 15.212C16.801 15.8573 15.8534 16.8049 15.2081 18.012C14.5628 19.2191 14.2188 20.4164 14.2188 23.7187V40.2822C14.2188 43.5844 14.5628 44.7818 15.2081 45.9889C15.8534 47.196 16.801 48.1435 18.0081 48.7889C19.2152 49.4342 20.4125 49.7782 23.7148 49.7782H31.9965C31.9965 49.7782 31.9965 27.38 31.9965 18.1382" fill="white" fill-opacity="0.24991"/>
<path d="M31.9965 14.2227H23.7148C20.4125 14.2227 19.2152 14.5667 18.0081 15.212C16.801 15.8573 15.8534 16.8049 15.2081 18.012C14.5628 19.2191 14.2188 20.4164 14.2188 23.7187V40.2822C14.2188 43.5844 14.5628 44.7818 15.2081 45.9889C15.8534 47.196 16.801 48.1435 18.0081 48.7889C19.2152 49.4342 20.4125 49.7782 23.7148 49.7782H31.9965C31.9965 49.7782 31.9965 27.38 31.9965 18.1382" stroke="#0F77FF" stroke-width="1.33333"/>
</g>
</g>
<defs>
<clipPath id="clip0_1915_11238">
<rect width="64" height="64" fill="white"/>
</clipPath>
</defs>
</svg>
