<svg width="80" height="84" viewBox="0 0 80 84" fill="none" xmlns="http://www.w3.org/2000/svg">
<path d="M56 14H24C19.5817 14 16 17.5817 16 22V54C16 58.4183 19.5817 62 24 62H56C60.4183 62 64 58.4183 64 54V22C64 17.5817 60.4183 14 56 14Z" fill="white"/>
<path fill-rule="evenodd" clip-rule="evenodd" d="M37.3738 36.5998C36.7371 37.0079 36.5312 37.4458 36.5312 37.7688C36.5312 38.0918 36.7371 38.5298 37.3738 38.9379C37.9991 39.3387 38.9259 39.6207 40.0035 39.6207C41.081 39.6207 42.0079 39.3387 42.6331 38.9379C43.2698 38.5298 43.4757 38.0918 43.4757 37.7688C43.4757 37.4458 43.2698 37.0079 42.6331 36.5998C42.0079 36.199 41.081 35.917 40.0035 35.917C38.9259 35.917 37.9991 36.199 37.3738 36.5998ZM43.4757 40.8605C42.5073 41.4015 41.2907 41.704 40.0035 41.704C38.7162 41.704 37.4997 41.4015 36.5312 40.8605V46.4494C36.5312 46.7724 36.7371 47.2103 37.3738 47.6185C37.9991 48.0193 38.9259 48.3013 40.0035 48.3013C41.081 48.3013 42.0079 48.0193 42.6331 47.6185C43.2698 47.2103 43.4757 46.7724 43.4757 46.4494V40.8605Z" fill="url(#paint0_linear_1915_11285)" fill-opacity="0.24"/>
<path fill-rule="evenodd" clip-rule="evenodd" d="M37.3712 36.6001C36.7345 37.0083 36.5286 37.4462 36.5286 37.7692C36.5286 38.0922 36.7345 38.5301 37.3712 38.9382C37.9965 39.339 38.9233 39.621 40.0009 39.621C41.0784 39.621 42.0053 39.339 42.6305 38.9382C43.2673 38.5301 43.4731 38.0922 43.4731 37.7692C43.4731 37.4462 43.2673 37.0083 42.6305 36.6001C42.0053 36.1993 41.0784 35.9173 40.0009 35.9173C38.9233 35.9173 37.9965 36.1993 37.3712 36.6001ZM43.4731 40.8608C42.5048 41.4018 41.2881 41.7044 40.0009 41.7044C38.7136 41.7044 37.497 41.4018 36.5286 40.8608V46.4497C36.5286 46.7727 36.7345 47.2106 37.3712 47.6188C37.9965 48.0196 38.9233 48.3016 40.0009 48.3016C41.0784 48.3016 42.0053 48.0196 42.6305 47.6188C43.2673 47.2106 43.4731 46.7727 43.4731 46.4497V40.8608ZM45.5564 37.7692C45.5564 36.4941 44.7518 35.4853 43.7548 34.8462C42.7464 34.1997 41.4163 33.834 40.0009 33.834C38.5854 33.834 37.2554 34.1997 36.2469 34.8462C35.2499 35.4853 34.4453 36.4941 34.4453 37.7692V52.2368C34.4453 52.8121 34.9117 53.2784 35.487 53.2784C36.0623 53.2784 36.5286 52.8121 36.5286 52.2368V49.5414C37.497 50.0824 38.7136 50.3849 40.0009 50.3849C41.2881 50.3849 42.5048 50.0824 43.4731 49.5414V52.2368C43.4731 52.8121 43.9395 53.2784 44.5148 53.2784C45.0901 53.2784 45.5564 52.8121 45.5564 52.2368V37.7692Z" fill="#0F77FF"/>
<path opacity="0.5" d="M49.2145 28.5782C49.4191 28.1692 50.0032 28.1692 50.2078 28.5782C51.2555 30.6725 51.4815 30.8981 53.5763 31.9449C53.9856 32.1494 53.9856 32.7331 53.5763 32.9376C51.4815 33.9844 51.2555 34.21 50.2078 36.3042C50.0032 36.7132 49.4191 36.7132 49.2145 36.3042C48.1668 34.21 47.9408 33.9844 45.846 32.9376C45.4368 32.7331 45.4368 32.1494 45.846 31.9449C47.9408 30.898 48.1668 30.6725 49.2145 28.5782Z" fill="#0F77FF"/>
<path opacity="0.3" d="M29.7848 28.5782C29.9895 28.1692 30.5735 28.1692 30.7781 28.5782C31.8258 30.6725 32.0518 30.8981 34.1466 31.9449C34.5559 32.1494 34.5559 32.7331 34.1466 32.9376C32.0518 33.9844 31.8258 34.21 30.7781 36.3042C30.5735 36.7132 29.9895 36.7132 29.7848 36.3042C28.7371 34.21 28.5111 33.9844 26.4163 32.9376C26.0071 32.7331 26.0071 32.1494 26.4163 31.9449C28.5111 30.8981 28.7371 30.6725 29.7848 28.5782Z" fill="#0F77FF"/>
<path d="M39.4957 23.0294C39.7004 22.6204 40.2844 22.6204 40.489 23.0294C41.5367 25.1237 41.7627 25.3492 43.8575 26.3961C44.2668 26.6006 44.2668 27.1843 43.8575 27.3888C41.7627 28.4356 41.5367 28.6611 40.489 30.7554C40.2844 31.1644 39.7004 31.1644 39.4957 30.7554C38.448 28.6611 38.222 28.4356 36.1272 27.3888C35.718 27.1843 35.718 26.6006 36.1272 26.3961C38.222 25.3492 38.448 25.1237 39.4957 23.0294Z" fill="#0F77FF"/>
<defs>
<linearGradient id="paint0_linear_1915_11285" x1="40.0035" y1="35.917" x2="40.0035" y2="48.3013" gradientUnits="userSpaceOnUse">
<stop stop-color="#0F77FF"/>
<stop offset="1" stop-color="#0F77FF" stop-opacity="0"/>
</linearGradient>
</defs>
</svg>
