<svg width="24" height="24" viewBox="0 0 24 24" fill="none" xmlns="http://www.w3.org/2000/svg">
<g clip-path="url(#clip0_1915_11333)">
<path d="M18 0H6C2.68629 0 0 2.68629 0 6V18C0 21.3137 2.68629 24 6 24H18C21.3137 24 24 21.3137 24 18V6C24 2.68629 21.3137 0 18 0Z" fill="white" fill-opacity="0.1"/>
<path d="M6 0.5H18C21.0376 0.5 23.5 2.96243 23.5 6V18C23.5 21.0376 21.0376 23.5 18 23.5H6C2.96243 23.5 0.5 21.0376 0.5 18V6C0.5 2.96243 2.96243 0.5 6 0.5Z" stroke="#88A3C6" stroke-opacity="0.18"/>
<mask id="mask0_1915_11333" style="mask-type:luminance" maskUnits="userSpaceOnUse" x="6" y="6" width="12" height="12">
<path d="M6 6H18V18H6V6Z" fill="white"/>
</mask>
<g mask="url(#mask0_1915_11333)">
<path d="M18 8.27914C17.5507 8.4781 17.074 8.60855 16.586 8.66614C17.1005 8.35882 17.4855 7.87465 17.669 7.30414C17.1856 7.59116 16.6566 7.7934 16.105 7.90214C15.7339 7.50707 15.243 7.24536 14.7081 7.15756C14.1733 7.06975 13.6244 7.16073 13.1466 7.41642C12.6687 7.67211 12.2884 8.07824 12.0647 8.5719C11.8409 9.06557 11.7862 9.61923 11.909 10.1471C10.9304 10.0979 9.97302 9.84354 9.09907 9.40045C8.22511 8.95736 7.45408 8.33547 6.836 7.57514C6.52149 8.11701 6.42512 8.7583 6.56648 9.36868C6.70783 9.97905 7.07631 10.5127 7.597 10.8611C7.20608 10.8489 6.82377 10.7433 6.482 10.5531C6.47502 11.1269 6.66849 11.6851 7.02904 12.1314C7.3896 12.5778 7.89462 12.8843 8.457 12.9981C8.09444 13.0969 7.71411 13.1116 7.345 13.0411C7.50234 13.5302 7.80864 13.9579 8.22104 14.2643C8.63343 14.5708 9.13131 14.7406 9.645 14.7501C8.6131 15.5596 7.30215 15.9264 6 15.7701C7.12576 16.4934 8.43592 16.8774 9.774 16.8761C14.345 16.8761 16.927 13.0161 16.772 9.55314C17.2537 9.20466 17.6695 8.77327 18 8.27914Z" fill="white"/>
</g>
</g>
<defs>
<clipPath id="clip0_1915_11333">
<rect width="24" height="24" fill="white"/>
</clipPath>
</defs>
</svg>
